999
FreeCAD v1.2 44682 (Git)
  0
SECTION
  2
HEADER
  9
$ACADVER
  1
AC1014
  9
$ACADMAINTVER
 70
     9
  9
$DWGCODEPAGE
  3
ANSI_1252
  9
$TEXTSTYLE
  7
STANDARD
  9
$DIMSTYLE
  2
STANDARD
  9
$DIMTXSTY
  7
STANDARD
  9
$CMLSTYLE
  2
STANDARD
  9
$LUNITS
 70
2
  9
$INSUNITS
 70
4
  9
$PEXTMAX
 10
50
 20
50
 30
50
  9
$PEXTMIN
 10
0
 20
0
 30
0
  9
$HANDSEED
  5
FFFF
  0
ENDSEC
  0
SECTION
  2
CLASSES
  0
CLASS
  1
ACDBDICTIONARYWDFLT
  2
AcDbDictionaryWithDefault
  3
ObjectDBX Classes
 90
        0
280
     0
281
     0
  0
CLASS
  1
XRECORD
  2
AcDbXrecord
  3
ObjectDBX Classes
 90
        0
280
     0
281
     0
  0
CLASS
  1
LWPOLYLINE
  2
AcDbPolyline
  3
ObjectDBX Classes
 90
        0
280
     0
281
     1
  0
ENDSEC
  0
SECTION
  2
TABLES
  0
TABLE
  2
VPORT
  5
20
330
0
100
AcDbSymbolTable
 70
     1
  0
VPORT
  5
21
330
20
100
AcDbSymbolTableRecord
100
AcDbViewportTableRecord
  2
*ACTIVE
 70
     0
  0
ENDTAB
  0
TABLE
  2
LTYPE
  5
22
330
0
100
AcDbSymbolTable
 70
     1
  0
LTYPE
  5
23
330
21
100
AcDbSymbolTableRecord
100
AcDbLinetypeTableRecord
  2
BYBLOCK
 70
     0
  3

 72
    65
 73
     0
 40
0.0
  0
LTYPE
  5
24
330
21
100
AcDbSymbolTableRecord
100
AcDbLinetypeTableRecord
  2
BYLAYER
 70
     0
  3

 72
    65
 73
     0
 40
0.0
  0
LTYPE
  5
25
330
21
100
AcDbSymbolTableRecord
100
AcDbLinetypeTableRecord
  2
CONTINUOUS
 70
     0
  3
Solid line
 72
    65
 73
     0
 40
0.0
  0
ENDTAB
  0
TABLE
  2
LAYER
  5
AB7
330
0
100
AcDbSymbolTable
 70
18
  0
LAYER
  5
AB8
330
AB7
100
AcDbSymbolTableRecord
100
AcDbLayerTableRecord
  2
0
 70
   0
 62
   7
  6
CONTINUOUS
  0
LAYER
  5
AB9
330
AB7
100
AcDbSymbolTableRecord
100
AcDbLayerTableRecord
  2
View
 70
    0
 62
    7
  6
CONTINUOUS
  0
LAYER
  5
ABA
330
AB7
100
AcDbSymbolTableRecord
100
AcDbLayerTableRecord
  2
Dimension
 70
    0
 62
    7
  6
CONTINUOUS
  0
LAYER
  5
ABB
330
AB7
100
AcDbSymbolTableRecord
100
AcDbLayerTableRecord
  2
Dimension001
 70
    0
 62
    7
  6
CONTINUOUS
  0
LAYER
  5
ABC
330
AB7
100
AcDbSymbolTableRecord
100
AcDbLayerTableRecord
  2
Dimension002
 70
    0
 62
    7
  6
CONTINUOUS
  0
LAYER
  5
ABD
330
AB7
100
AcDbSymbolTableRecord
100
AcDbLayerTableRecord
  2
Dimension003
 70
    0
 62
    7
  6
CONTINUOUS
  0
LAYER
  5
ABE
330
AB7
100
AcDbSymbolTableRecord
100
AcDbLayerTableRecord
  2
Dimension004
 70
    0
 62
    7
  6
CONTINUOUS
  0
LAYER
  5
ABF
330
AB7
100
AcDbSymbolTableRecord
100
AcDbLayerTableRecord
  2
Dimension005
 70
    0
 62
    7
  6
CONTINUOUS
  0
LAYER
  5
AC0
330
AB7
100
AcDbSymbolTableRecord
100
AcDbLayerTableRecord
  2
Dimension006
 70
    0
 62
    7
  6
CONTINUOUS
  0
LAYER
  5
AC1
330
AB7
100
AcDbSymbolTableRecord
100
AcDbLayerTableRecord
  2
Dimension008
 70
    0
 62
    7
  6
CONTINUOUS
  0
LAYER
  5
AC2
330
AB7
100
AcDbSymbolTableRecord
100
AcDbLayerTableRecord
  2
Dimension009
 70
    0
 62
    7
  6
CONTINUOUS
  0
LAYER
  5
AC3
330
AB7
100
AcDbSymbolTableRecord
100
AcDbLayerTableRecord
  2
Dimension010
 70
    0
 62
    7
  6
CONTINUOUS
  0
LAYER
  5
AC4
330
AB7
100
AcDbSymbolTableRecord
100
AcDbLayerTableRecord
  2
Dimension011
 70
    0
 62
    7
  6
CONTINUOUS
  0
LAYER
  5
AC5
330
AB7
100
AcDbSymbolTableRecord
100
AcDbLayerTableRecord
  2
Dimension012
 70
    0
 62
    7
  6
CONTINUOUS
  0
LAYER
  5
AC6
330
AB7
100
AcDbSymbolTableRecord
100
AcDbLayerTableRecord
  2
Dimension013
 70
    0
 62
    7
  6
CONTINUOUS
  0
LAYER
  5
AC7
330
AB7
100
AcDbSymbolTableRecord
100
AcDbLayerTableRecord
  2
Dimension014
 70
    0
 62
    7
  6
CONTINUOUS
  0
LAYER
  5
AC8
330
AB7
100
AcDbSymbolTableRecord
100
AcDbLayerTableRecord
  2
Dimension015
 70
    0
 62
    7
  6
CONTINUOUS
  0
LAYER
  5
AC9
330
AB7
100
AcDbSymbolTableRecord
100
AcDbLayerTableRecord
  2
Dimension016
 70
    0
 62
    7
  6
CONTINUOUS
  0
ENDTAB
  0
TABLE
  2
STYLE
  5
70
330
0
100
AcDbSymbolTable
 70
     2
  0
STYLE
  5
71
330
70
100
AcDbSymbolTableRecord
100
AcDbTextStyleTableRecord
  2
STANDARD
 70
     0
 40
0.0
 41
1.0
 50
0.0
 71
     0
 42
2.5
  3
arial.ttf
  4

  0
STYLE
  5
72
330
70
100
AcDbSymbolTableRecord
100
AcDbTextStyleTableRecord
  2
ANNOTATIVE
 70
     0
 40
0.0
 41
1.0
 50
0.0
 71
     0
 42
2.5
  3
arial.ttf
  4

  0
ENDTAB
  0
TABLE
  2
VIEW
  5
73
330
0
100
AcDbSymbolTable
 70
     0
  0
ENDTAB
  0
TABLE
  2
UCS
  5
74
330
0
100
AcDbSymbolTable
 70
     0
  0
ENDTAB
  0
TABLE
  2
APPID
  5
75
330
0
100
AcDbSymbolTable
 70
     2
  0
APPID
  5
76
330
75
100
AcDbSymbolTableRecord
100
AcDbRegAppTableRecord
  2
ACAD
 70
     0
  0
APPID
  5
77
330
75
100
AcDbSymbolTableRecord
100
AcDbRegAppTableRecord
  2
ACADANNOTATIVE
 70
     0
  0
ENDTAB
  0
TABLE
  2
DIMSTYLE
  5
78
330
0
100
AcDbSymbolTable
 70
     2
  0
DIMSTYLE
105
79
330
78
100
AcDbSymbolTableRecord
100
AcDbDimStyleTableRecord
  2
STANDARD
 70
     0
  3

  4

  5

  6

  7

 40
0.0
 41
2.5
 42
0.625
 43
3.75
 44
1.25
 45
0.0
 46
0.0
 47
0.0
 48
0.0
140
2.5
141
2.5
142
0.0
143
0.03937007874016
144
1.0
145
0.0
146
1.0
147
0.625
 71
     0
 72
     0
 73
     0
 74
     0
 75
     0
 76
     0
 77
     1
 78
     8
170
     0
171
     3
172
     1
173
     0
174
     0
175
     0
176
     0
177
     0
178
     0
270
     2
271
     2
272
     2
273
     2
274
     3
340
71
275
     0
280
     0
281
     0
282
     0
283
     0
284
     8
285
     0
286
     0
287
     3
288
     0
  0
ENDTAB
  0
TABLE
  2
BLOCK_RECORD
  5
A01
330
0
100
AcDbSymbolTable
  70
5
  0
BLOCK_RECORD
  5
A02
330
A01
100
AcDbSymbolTableRecord
100
AcDbBlockTableRecord
  2
*MODEL_SPACE
  0
BLOCK_RECORD
  5
A03
330
A01
100
AcDbSymbolTableRecord
100
AcDbBlockTableRecord
  2
*PAPER_SPACE
  0
BLOCK_RECORD
  5
A18
330
A01
100
AcDbSymbolTableRecord
100
AcDbBlockTableRecord
  2
*Dimension
  0
BLOCK_RECORD
  5
A22
330
A01
100
AcDbSymbolTableRecord
100
AcDbBlockTableRecord
  2
*Dimension001
  0
BLOCK_RECORD
  5
A2C
330
A01
100
AcDbSymbolTableRecord
100
AcDbBlockTableRecord
  2
*Dimension002
  0
BLOCK_RECORD
  5
A36
330
A01
100
AcDbSymbolTableRecord
100
AcDbBlockTableRecord
  2
*Dimension003
  0
BLOCK_RECORD
  5
A40
330
A01
100
AcDbSymbolTableRecord
100
AcDbBlockTableRecord
  2
*Dimension004
  0
BLOCK_RECORD
  5
A4A
330
A01
100
AcDbSymbolTableRecord
100
AcDbBlockTableRecord
  2
*Dimension005
  0
BLOCK_RECORD
  5
A54
330
A01
100
AcDbSymbolTableRecord
100
AcDbBlockTableRecord
  2
*Dimension006
  0
BLOCK_RECORD
  5
A5E
330
A01
100
AcDbSymbolTableRecord
100
AcDbBlockTableRecord
  2
*Dimension008
  0
BLOCK_RECORD
  5
A68
330
A01
100
AcDbSymbolTableRecord
100
AcDbBlockTableRecord
  2
*Dimension009
  0
BLOCK_RECORD
  5
A72
330
A01
100
AcDbSymbolTableRecord
100
AcDbBlockTableRecord
  2
*Dimension010
  0
BLOCK_RECORD
  5
A7C
330
A01
100
AcDbSymbolTableRecord
100
AcDbBlockTableRecord
  2
*Dimension011
  0
BLOCK_RECORD
  5
A86
330
A01
100
AcDbSymbolTableRecord
100
AcDbBlockTableRecord
  2
*Dimension012
  0
BLOCK_RECORD
  5
A90
330
A01
100
AcDbSymbolTableRecord
100
AcDbBlockTableRecord
  2
*Dimension013
  0
BLOCK_RECORD
  5
A9A
330
A01
100
AcDbSymbolTableRecord
100
AcDbBlockTableRecord
  2
*Dimension014
  0
BLOCK_RECORD
  5
AA4
330
A01
100
AcDbSymbolTableRecord
100
AcDbBlockTableRecord
  2
*Dimension015
  0
BLOCK_RECORD
  5
AAE
330
A01
100
AcDbSymbolTableRecord
100
AcDbBlockTableRecord
  2
*Dimension016
  0
ENDTAB
  0
ENDSEC
  0
SECTION
  2
BLOCKS
  0
BLOCK
  5
A04
330
A02
100
AcDbEntity
  8
0
100
AcDbBlockBegin
  2
*MODEL_SPACE
 70
   0
 10
0
 20
0
 30
0
  3
*MODEL_SPACE
  1
 
  0
ENDBLK
  5
A05
330
A02
100
AcDbEntity
  8
0
100
AcDbBlockEnd
  0
BLOCK
  5
A06
330
A03
100
AcDbEntity
 67
1
  8
0
100
AcDbBlockBegin
  2
*PAPER_SPACE
 70
   0
 10
0
 20
0
 30
0
  3
*PAPER_SPACE
  1
 
  0
ENDBLK
  5
A07
330
A03
100
AcDbEntity
 67
    1
  8
0
100
AcDbBlockEnd
  0
BLOCK
  5
A19
330
A18
100
AcDbEntity
  8
Dimension
100
AcDbBlockBegin
  2
*Dimension
 70
   1
 10
0
 20
0
 30
0
  3
*Dimension
  1
 
  0
LINE
  5
A1A
330
A18
100
AcDbEntity
  8
Dimension
100
AcDbLine
 10
21.5
 20
181.2
 30
0
 11
21.5
 21
198.12
 31
0
  0
LINE
  5
A1B
330
A18
100
AcDbEntity
  8
Dimension
100
AcDbLine
 10
224.7
 20
181.2
 30
0
 11
224.7
 21
198.12
 31
0
  0
LINE
  5
A1C
330
A18
100
AcDbEntity
  8
Dimension
100
AcDbLine
 10
224.7
 20
198.12
 30
0
 11
21.5
 21
198.12
 31
0
  0
TEXT
  5
A1D
330
A18
100
AcDbEntity
  8
Dimension
100
AcDbText
 10
83.8783
 20
193.12
 30
0
 40
3.5
  1
8
  7
STANDARD
 72
1
 11
83.8783
 21
198.12
 31
0
100
AcDbText
  0
SOLID
  5
A1E
330
A18
100
AcDbEntity
  8
0
 62
     0
100
AcDbTrace
 10
229.7
 20
198.537
 30
0
 11
229.7
 21
197.703
 31
0
 12
224.7
 22
198.12
 32
0
 13
224.7
 23
198.12
 33
0
  0
SOLID
  5
A1F
330
A18
100
AcDbEntity
  8
0
 62
     0
100
AcDbTrace
 10
16.5
 20
198.537
 30
0
 11
16.5
 21
197.703
 31
0
 12
21.5
 22
198.12
 32
0
 13
21.5
 23
198.12
 33
0
  0
ENDBLK
  5
A20
330
A18
100
AcDbEntity
  8
Dimension
100
AcDbBlockEnd
  0
BLOCK
  5
A23
330
A22
100
AcDbEntity
  8
Dimension001
100
AcDbBlockBegin
  2
*Dimension001
 70
   1
 10
0
 20
0
 30
0
  3
*Dimension001
  1
 
  0
LINE
  5
A24
330
A22
100
AcDbEntity
  8
Dimension001
100
AcDbLine
 10
21.5
 20
54.2
 30
0
 11
14.5911
 21
54.2
 31
0
  0
LINE
  5
A25
330
A22
100
AcDbEntity
  8
Dimension001
100
AcDbLine
 10
21.5
 20
181.2
 30
0
 11
14.5911
 21
181.2
 31
0
  0
LINE
  5
A26
330
A22
100
AcDbEntity
  8
Dimension001
100
AcDbLine
 10
14.5911
 20
181.2
 30
0
 11
14.5911
 21
54.2
 31
0
  0
TEXT
  5
A27
330
A22
100
AcDbEntity
  8
Dimension001
100
AcDbText
 10
9.59112
 20
110.331
 30
0
 40
3.5
  1
5
  7
STANDARD
 72
1
 11
14.5911
 21
110.331
 31
0
100
AcDbText
  0
SOLID
  5
A28
330
A22
100
AcDbEntity
  8
0
 62
     0
100
AcDbTrace
 10
14.1745
 20
186.2
 30
0
 11
15.0078
 21
186.2
 31
0
 12
14.5911
 22
181.2
 32
0
 13
14.5911
 23
181.2
 33
0
  0
SOLID
  5
A29
330
A22
100
AcDbEntity
  8
0
 62
     0
100
AcDbTrace
 10
14.1745
 20
49.2
 30
0
 11
15.0078
 21
49.2
 31
0
 12
14.5911
 22
54.2
 32
0
 13
14.5911
 23
54.2
 33
0
  0
ENDBLK
  5
A2A
330
A22
100
AcDbEntity
  8
Dimension001
100
AcDbBlockEnd
  0
BLOCK
  5
A2D
330
A2C
100
AcDbEntity
  8
Dimension002
100
AcDbBlockBegin
  2
*Dimension002
 70
   1
 10
0
 20
0
 30
0
  3
*Dimension002
  1
 
  0
LINE
  5
A2E
330
A2C
100
AcDbEntity
  8
Dimension002
100
AcDbLine
 10
21.5
 20
54.2
 30
0
 11
21.5
 21
50.1897
 31
0
  0
LINE
  5
A2F
330
A2C
100
AcDbEntity
  8
Dimension002
100
AcDbLine
 10
85
 20
54.2
 30
0
 11
85
 21
50.1897
 31
0
  0
LINE
  5
A30
330
A2C
100
AcDbEntity
  8
Dimension002
100
AcDbLine
 10
85
 20
50.1897
 30
0
 11
21.5
 21
50.1897
 31
0
  0
TEXT
  5
A31
330
A2C
100
AcDbEntity
  8
Dimension002
100
AcDbText
 10
58.5411
 20
45.1897
 30
0
 40
3.5
  1
2.5
  7
STANDARD
 72
1
 11
58.5411
 21
50.1897
 31
0
100
AcDbText
  0
SOLID
  5
A32
330
A2C
100
AcDbEntity
  8
0
 62
     0
100
AcDbTrace
 10
90
 20
49.7731
 30
0
 11
90
 21
50.6064
 31
0
 12
85
 22
50.1897
 32
0
 13
85
 23
50.1897
 33
0
  0
SOLID
  5
A33
330
A2C
100
AcDbEntity
  8
0
 62
     0
100
AcDbTrace
 10
16.5
 20
49.7731
 30
0
 11
16.5
 21
50.6064
 31
0
 12
21.5
 22
50.1897
 32
0
 13
21.5
 23
50.1897
 33
0
  0
ENDBLK
  5
A34
330
A2C
100
AcDbEntity
  8
Dimension002
100
AcDbBlockEnd
  0
BLOCK
  5
A37
330
A36
100
AcDbEntity
  8
Dimension003
100
AcDbBlockBegin
  2
*Dimension003
 70
   1
 10
0
 20
0
 30
0
  3
*Dimension003
  1
 
  0
LINE
  5
A38
330
A36
100
AcDbEntity
  8
Dimension003
100
AcDbLine
 10
85
 20
54.2
 30
0
 11
65.3191
 21
54.2
 31
0
  0
LINE
  5
A39
330
A36
100
AcDbEntity
  8
Dimension003
100
AcDbLine
 10
85
 20
28.8
 30
0
 11
65.3191
 21
28.8
 31
0
  0
LINE
  5
A3A
330
A36
100
AcDbEntity
  8
Dimension003
100
AcDbLine
 10
65.3191
 20
28.8
 30
0
 11
65.3191
 21
54.2
 31
0
  0
TEXT
  5
A3B
330
A36
100
AcDbEntity
  8
Dimension003
100
AcDbText
 10
70.3191
 20
41.5
 30
0
 40
3.5
  1
1
  7
STANDARD
 72
1
 11
65.3191
 21
41.5
 31
0
100
AcDbText
  0
SOLID
  5
A3C
330
A36
100
AcDbEntity
  8
0
 62
     0
100
AcDbTrace
 10
64.9025
 20
23.8
 30
0
 11
65.7358
 21
23.8
 31
0
 12
65.3191
 22
28.8
 32
0
 13
65.3191
 23
28.8
 33
0
  0
SOLID
  5
A3D
330
A36
100
AcDbEntity
  8
0
 62
     0
100
AcDbTrace
 10
64.9025
 20
59.2
 30
0
 11
65.7358
 21
59.2
 31
0
 12
65.3191
 22
54.2
 32
0
 13
65.3191
 23
54.2
 33
0
  0
ENDBLK
  5
A3E
330
A36
100
AcDbEntity
  8
Dimension003
100
AcDbBlockEnd
  0
BLOCK
  5
A41
330
A40
100
AcDbEntity
  8
Dimension004
100
AcDbBlockBegin
  2
*Dimension004
 70
   1
 10
0
 20
0
 30
0
  3
*Dimension004
  1
 
  0
LINE
  5
A42
330
A40
100
AcDbEntity
  8
Dimension004
100
AcDbLine
 10
224.7
 20
28.8
 30
0
 11
224.7
 21
17.6109
 31
0
  0
LINE
  5
A43
330
A40
100
AcDbEntity
  8
Dimension004
100
AcDbLine
 10
85
 20
28.8
 30
0
 11
85
 21
17.6109
 31
0
  0
LINE
  5
A44
330
A40
100
AcDbEntity
  8
Dimension004
100
AcDbLine
 10
85
 20
17.6109
 30
0
 11
224.7
 21
17.6109
 31
0
  0
TEXT
  5
A45
330
A40
100
AcDbEntity
  8
Dimension004
100
AcDbText
 10
142.212
 20
22.6109
 30
0
 40
3.5
  1
5.5
  7
STANDARD
 72
1
 11
142.212
 21
17.6109
 31
0
100
AcDbText
  0
SOLID
  5
A46
330
A40
100
AcDbEntity
  8
0
 62
     0
100
AcDbTrace
 10
80
 20
17.1942
 30
0
 11
80
 21
18.0276
 31
0
 12
85
 22
17.6109
 32
0
 13
85
 23
17.6109
 33
0
  0
SOLID
  5
A47
330
A40
100
AcDbEntity
  8
0
 62
     0
100
AcDbTrace
 10
229.7
 20
17.1942
 30
0
 11
229.7
 21
18.0276
 31
0
 12
224.7
 22
17.6109
 32
0
 13
224.7
 23
17.6109
 33
0
  0
ENDBLK
  5
A48
330
A40
100
AcDbEntity
  8
Dimension004
100
AcDbBlockEnd
  0
BLOCK
  5
A4B
330
A4A
100
AcDbEntity
  8
Dimension005
100
AcDbBlockBegin
  2
*Dimension005
 70
   1
 10
0
 20
0
 30
0
  3
*Dimension005
  1
 
  0
LINE
  5
A4C
330
A4A
100
AcDbEntity
  8
Dimension005
100
AcDbLine
 10
21.5
 20
130.4
 30
0
 11
21.5
 21
205.12
 31
0
  0
LINE
  5
A4D
330
A4A
100
AcDbEntity
  8
Dimension005
100
AcDbLine
 10
275.5
 20
130.4
 30
0
 11
275.5
 21
205.12
 31
0
  0
LINE
  5
A4E
330
A4A
100
AcDbEntity
  8
Dimension005
100
AcDbLine
 10
275.5
 20
205.12
 30
0
 11
21.5
 21
205.12
 31
0
  0
TEXT
  5
A4F
330
A4A
100
AcDbEntity
  8
Dimension005
100
AcDbText
 10
148.5
 20
200.12
 30
0
 40
3.5
  1
10
  7
STANDARD
 72
1
 11
148.5
 21
205.12
 31
0
100
AcDbText
  0
SOLID
  5
A50
330
A4A
100
AcDbEntity
  8
0
 62
     0
100
AcDbTrace
 10
280.5
 20
205.537
 30
0
 11
280.5
 21
204.703
 31
0
 12
275.5
 22
205.12
 32
0
 13
275.5
 23
205.12
 33
0
  0
SOLID
  5
A51
330
A4A
100
AcDbEntity
  8
0
 62
     0
100
AcDbTrace
 10
16.5
 20
205.537
 30
0
 11
16.5
 21
204.703
 31
0
 12
21.5
 22
205.12
 32
0
 13
21.5
 23
205.12
 33
0
  0
ENDBLK
  5
A52
330
A4A
100
AcDbEntity
  8
Dimension005
100
AcDbBlockEnd
  0
BLOCK
  5
A55
330
A54
100
AcDbEntity
  8
Dimension006
100
AcDbBlockBegin
  2
*Dimension006
 70
   1
 10
0
 20
0
 30
0
  3
*Dimension006
  1
 
  0
LINE
  5
A56
330
A54
100
AcDbEntity
  8
Dimension006
100
AcDbLine
 10
173.9
 20
73.25
 30
0
 11
178.9
 21
73.25
 31
0
  0
LINE
  5
A57
330
A54
100
AcDbEntity
  8
Dimension006
100
AcDbLine
 10
173.9
 20
136.75
 30
0
 11
178.9
 21
136.75
 31
0
  0
LINE
  5
A58
330
A54
100
AcDbEntity
  8
Dimension006
100
AcDbLine
 10
178.9
 20
136.75
 30
0
 11
178.9
 21
73.25
 31
0
  0
TEXT
  5
A59
330
A54
100
AcDbEntity
  8
Dimension006
100
AcDbText
 10
173.9
 20
105
 30
0
 40
3.5
  1
2.5
  7
STANDARD
 72
1
 11
178.9
 21
105
 31
0
100
AcDbText
  0
SOLID
  5
A5A
330
A54
100
AcDbEntity
  8
0
 62
     0
100
AcDbTrace
 10
179.317
 20
141.75
 30
0
 11
178.483
 21
141.75
 31
0
 12
178.9
 22
136.75
 32
0
 13
178.9
 23
136.75
 33
0
  0
SOLID
  5
A5B
330
A54
100
AcDbEntity
  8
0
 62
     0
100
AcDbTrace
 10
179.317
 20
68.25
 30
0
 11
178.483
 21
68.25
 31
0
 12
178.9
 22
73.25
 32
0
 13
178.9
 23
73.25
 33
0
  0
ENDBLK
  5
A5C
330
A54
100
AcDbEntity
  8
Dimension006
100
AcDbBlockEnd
  0
BLOCK
  5
A5F
330
A5E
100
AcDbEntity
  8
Dimension008
100
AcDbBlockBegin
  2
*Dimension008
 70
   1
 10
0
 20
0
 30
0
  3
*Dimension008
  1
 
  0
LINE
  5
A60
330
A5E
100
AcDbEntity
  8
Dimension008
100
AcDbLine
 10
275.5
 20
105
 30
0
 11
275.5
 21
102.502
 31
0
  0
LINE
  5
A61
330
A5E
100
AcDbEntity
  8
Dimension008
100
AcDbLine
 10
205.65
 20
105
 30
0
 11
205.65
 21
102.502
 31
0
  0
LINE
  5
A62
330
A5E
100
AcDbEntity
  8
Dimension008
100
AcDbLine
 10
205.65
 20
102.502
 30
0
 11
275.5
 21
102.502
 31
0
  0
TEXT
  5
A63
330
A5E
100
AcDbEntity
  8
Dimension008
100
AcDbText
 10
240.575
 20
107.502
 30
0
 40
3.5
  1
2.75
  7
STANDARD
 72
1
 11
240.575
 21
102.502
 31
0
100
AcDbText
  0
SOLID
  5
A64
330
A5E
100
AcDbEntity
  8
0
 62
     0
100
AcDbTrace
 10
200.65
 20
102.085
 30
0
 11
200.65
 21
102.919
 31
0
 12
205.65
 22
102.502
 32
0
 13
205.65
 23
102.502
 33
0
  0
SOLID
  5
A65
330
A5E
100
AcDbEntity
  8
0
 62
     0
100
AcDbTrace
 10
280.5
 20
102.085
 30
0
 11
280.5
 21
102.919
 31
0
 12
275.5
 22
102.502
 32
0
 13
275.5
 23
102.502
 33
0
  0
ENDBLK
  5
A66
330
A5E
100
AcDbEntity
  8
Dimension008
100
AcDbBlockEnd
  0
BLOCK
  5
A69
330
A68
100
AcDbEntity
  8
Dimension009
100
AcDbBlockBegin
  2
*Dimension009
 70
   1
 10
0
 20
0
 30
0
  3
*Dimension009
  1
 
  0
LINE
  5
A6A
330
A68
100
AcDbEntity
  8
Dimension009
100
AcDbLine
 10
205.65
 20
181.2
 30
0
 11
200.65
 21
181.2
 31
0
  0
LINE
  5
A6B
330
A68
100
AcDbEntity
  8
Dimension009
100
AcDbLine
 10
205.65
 20
105
 30
0
 11
200.65
 21
105
 31
0
  0
LINE
  5
A6C
330
A68
100
AcDbEntity
  8
Dimension009
100
AcDbLine
 10
200.65
 20
105
 30
0
 11
200.65
 21
181.2
 31
0
  0
TEXT
  5
A6D
330
A68
100
AcDbEntity
  8
Dimension009
100
AcDbText
 10
205.65
 20
143.1
 30
0
 40
3.5
  1
3
  7
STANDARD
 72
1
 11
200.65
 21
143.1
 31
0
100
AcDbText
  0
SOLID
  5
A6E
330
A68
100
AcDbEntity
  8
0
 62
     0
100
AcDbTrace
 10
200.233
 20
100
 30
0
 11
201.067
 21
100
 31
0
 12
200.65
 22
105
 32
0
 13
200.65
 23
105
 33
0
  0
SOLID
  5
A6F
330
A68
100
AcDbEntity
  8
0
 62
     0
100
AcDbTrace
 10
200.233
 20
186.2
 30
0
 11
201.067
 21
186.2
 31
0
 12
200.65
 22
181.2
 32
0
 13
200.65
 23
181.2
 33
0
  0
ENDBLK
  5
A70
330
A68
100
AcDbEntity
  8
Dimension009
100
AcDbBlockEnd
  0
BLOCK
  5
A73
330
A72
100
AcDbEntity
  8
Dimension010
100
AcDbBlockBegin
  2
*Dimension010
 70
   1
 10
0
 20
0
 30
0
  3
*Dimension010
  1
 
  0
LINE
  5
A74
330
A72
100
AcDbEntity
  8
Dimension010
100
AcDbLine
 10
173.9
 20
181.2
 30
0
 11
168.9
 21
181.2
 31
0
  0
LINE
  5
A75
330
A72
100
AcDbEntity
  8
Dimension010
100
AcDbLine
 10
173.9
 20
136.75
 30
0
 11
168.9
 21
136.75
 31
0
  0
LINE
  5
A76
330
A72
100
AcDbEntity
  8
Dimension010
100
AcDbLine
 10
168.9
 20
136.75
 30
0
 11
168.9
 21
181.2
 31
0
  0
TEXT
  5
A77
330
A72
100
AcDbEntity
  8
Dimension010
100
AcDbText
 10
173.9
 20
158.975
 30
0
 40
3.5
  1
1.75
  7
STANDARD
 72
1
 11
168.9
 21
158.975
 31
0
100
AcDbText
  0
SOLID
  5
A78
330
A72
100
AcDbEntity
  8
0
 62
     0
100
AcDbTrace
 10
168.483
 20
131.75
 30
0
 11
169.317
 21
131.75
 31
0
 12
168.9
 22
136.75
 32
0
 13
168.9
 23
136.75
 33
0
  0
SOLID
  5
A79
330
A72
100
AcDbEntity
  8
0
 62
     0
100
AcDbTrace
 10
168.483
 20
186.2
 30
0
 11
169.317
 21
186.2
 31
0
 12
168.9
 22
181.2
 32
0
 13
168.9
 23
181.2
 33
0
  0
ENDBLK
  5
A7A
330
A72
100
AcDbEntity
  8
Dimension010
100
AcDbBlockEnd
  0
BLOCK
  5
A7D
330
A7C
100
AcDbEntity
  8
Dimension011
100
AcDbBlockBegin
  2
*Dimension011
 70
   1
 10
0
 20
0
 30
0
  3
*Dimension011
  1
 
  0
LINE
  5
A7E
330
A7C
100
AcDbEntity
  8
Dimension011
100
AcDbLine
 10
275.5
 20
136.75
 30
0
 11
275.5
 21
125.4
 31
0
  0
LINE
  5
A7F
330
A7C
100
AcDbEntity
  8
Dimension011
100
AcDbLine
 10
173.9
 20
136.75
 30
0
 11
173.9
 21
125.4
 31
0
  0
LINE
  5
A80
330
A7C
100
AcDbEntity
  8
Dimension011
100
AcDbLine
 10
173.9
 20
125.4
 30
0
 11
275.5
 21
125.4
 31
0
  0
TEXT
  5
A81
330
A7C
100
AcDbEntity
  8
Dimension011
100
AcDbText
 10
224.7
 20
130.4
 30
0
 40
3.5
  1
4
  7
STANDARD
 72
1
 11
224.7
 21
125.4
 31
0
100
AcDbText
  0
SOLID
  5
A82
330
A7C
100
AcDbEntity
  8
0
 62
     0
100
AcDbTrace
 10
168.9
 20
124.983
 30
0
 11
168.9
 21
125.817
 31
0
 12
173.9
 22
125.4
 32
0
 13
173.9
 23
125.4
 33
0
  0
SOLID
  5
A83
330
A7C
100
AcDbEntity
  8
0
 62
     0
100
AcDbTrace
 10
280.5
 20
124.983
 30
0
 11
280.5
 21
125.817
 31
0
 12
275.5
 22
125.4
 32
0
 13
275.5
 23
125.4
 33
0
  0
ENDBLK
  5
A84
330
A7C
100
AcDbEntity
  8
Dimension011
100
AcDbBlockEnd
  0
BLOCK
  5
A87
330
A86
100
AcDbEntity
  8
Dimension012
100
AcDbBlockBegin
  2
*Dimension012
 70
   1
 10
0
 20
0
 30
0
  3
*Dimension012
  1
 
  0
LINE
  5
A88
330
A86
100
AcDbEntity
  8
Dimension012
100
AcDbLine
 10
237.4
 20
73.25
 30
0
 11
237.4
 21
70.7519
 31
0
  0
LINE
  5
A89
330
A86
100
AcDbEntity
  8
Dimension012
100
AcDbLine
 10
173.9
 20
73.25
 30
0
 11
173.9
 21
70.7519
 31
0
  0
LINE
  5
A8A
330
A86
100
AcDbEntity
  8
Dimension012
100
AcDbLine
 10
173.9
 20
70.7519
 30
0
 11
237.4
 21
70.7519
 31
0
  0
TEXT
  5
A8B
330
A86
100
AcDbEntity
  8
Dimension012
100
AcDbText
 10
205.65
 20
75.7519
 30
0
 40
3.5
  1
2.5
  7
STANDARD
 72
1
 11
205.65
 21
70.7519
 31
0
100
AcDbText
  0
SOLID
  5
A8C
330
A86
100
AcDbEntity
  8
0
 62
     0
100
AcDbTrace
 10
168.9
 20
70.3352
 30
0
 11
168.9
 21
71.1686
 31
0
 12
173.9
 22
70.7519
 32
0
 13
173.9
 23
70.7519
 33
0
  0
SOLID
  5
A8D
330
A86
100
AcDbEntity
  8
0
 62
     0
100
AcDbTrace
 10
242.4
 20
70.3352
 30
0
 11
242.4
 21
71.1686
 31
0
 12
237.4
 22
70.7519
 32
0
 13
237.4
 23
70.7519
 33
0
  0
ENDBLK
  5
A8E
330
A86
100
AcDbEntity
  8
Dimension012
100
AcDbBlockEnd
  0
BLOCK
  5
A91
330
A90
100
AcDbEntity
  8
Dimension013
100
AcDbBlockBegin
  2
*Dimension013
 70
   1
 10
0
 20
0
 30
0
  3
*Dimension013
  1
 
  0
LINE
  5
A92
330
A90
100
AcDbEntity
  8
Dimension013
100
AcDbLine
 10
203.11
 20
181.2
 30
0
 11
198.11
 21
181.2
 31
0
  0
LINE
  5
A93
330
A90
100
AcDbEntity
  8
Dimension013
100
AcDbLine
 10
203.11
 20
159.61
 30
0
 11
198.11
 21
159.61
 31
0
  0
LINE
  5
A94
330
A90
100
AcDbEntity
  8
Dimension013
100
AcDbLine
 10
198.11
 20
159.61
 30
0
 11
198.11
 21
181.2
 31
0
  0
TEXT
  5
A95
330
A90
100
AcDbEntity
  8
Dimension013
100
AcDbText
 10
203.11
 20
170.405
 30
0
 40
3.5
  1
0.85
  7
STANDARD
 72
1
 11
198.11
 21
170.405
 31
0
100
AcDbText
  0
SOLID
  5
A96
330
A90
100
AcDbEntity
  8
0
 62
     0
100
AcDbTrace
 10
197.693
 20
154.61
 30
0
 11
198.527
 21
154.61
 31
0
 12
198.11
 22
159.61
 32
0
 13
198.11
 23
159.61
 33
0
  0
SOLID
  5
A97
330
A90
100
AcDbEntity
  8
0
 62
     0
100
AcDbTrace
 10
197.693
 20
186.2
 30
0
 11
198.527
 21
186.2
 31
0
 12
198.11
 22
181.2
 32
0
 13
198.11
 23
181.2
 33
0
  0
ENDBLK
  5
A98
330
A90
100
AcDbEntity
  8
Dimension013
100
AcDbBlockEnd
  0
BLOCK
  5
A9B
330
A9A
100
AcDbEntity
  8
Dimension014
100
AcDbBlockBegin
  2
*Dimension014
 70
   1
 10
0
 20
0
 30
0
  3
*Dimension014
  1
 
  0
LINE
  5
A9C
330
A9A
100
AcDbEntity
  8
Dimension014
100
AcDbLine
 10
275.5
 20
159.61
 30
0
 11
275.5
 21
157.112
 31
0
  0
LINE
  5
A9D
330
A9A
100
AcDbEntity
  8
Dimension014
100
AcDbLine
 10
203.11
 20
159.61
 30
0
 11
203.11
 21
157.112
 31
0
  0
LINE
  5
A9E
330
A9A
100
AcDbEntity
  8
Dimension014
100
AcDbLine
 10
203.11
 20
157.112
 30
0
 11
275.5
 21
157.112
 31
0
  0
TEXT
  5
A9F
330
A9A
100
AcDbEntity
  8
Dimension014
100
AcDbText
 10
239.305
 20
162.112
 30
0
 40
3.5
  1
2.85
  7
STANDARD
 72
1
 11
239.305
 21
157.112
 31
0
100
AcDbText
  0
SOLID
  5
AA0
330
A9A
100
AcDbEntity
  8
0
 62
     0
100
AcDbTrace
 10
198.11
 20
156.695
 30
0
 11
198.11
 21
157.529
 31
0
 12
203.11
 22
157.112
 32
0
 13
203.11
 23
157.112
 33
0
  0
SOLID
  5
AA1
330
A9A
100
AcDbEntity
  8
0
 62
     0
100
AcDbTrace
 10
280.5
 20
156.695
 30
0
 11
280.5
 21
157.529
 31
0
 12
275.5
 22
157.112
 32
0
 13
275.5
 23
157.112
 33
0
  0
ENDBLK
  5
AA2
330
A9A
100
AcDbEntity
  8
Dimension014
100
AcDbBlockEnd
  0
BLOCK
  5
AA5
330
AA4
100
AcDbEntity
  8
Dimension015
100
AcDbBlockBegin
  2
*Dimension015
 70
   1
 10
0
 20
0
 30
0
  3
*Dimension015
  1
 
  0
LINE
  5
AA6
330
AA4
100
AcDbEntity
  8
Dimension015
100
AcDbLine
 10
114.316
 20
181.2
 30
0
 11
109.316
 21
181.2
 31
0
  0
LINE
  5
AA7
330
AA4
100
AcDbEntity
  8
Dimension015
100
AcDbLine
 10
114.316
 20
173.602
 30
0
 11
109.316
 21
173.602
 31
0
  0
LINE
  5
AA8
330
AA4
100
AcDbEntity
  8
Dimension015
100
AcDbLine
 10
109.316
 20
173.602
 30
0
 11
109.316
 21
181.2
 31
0
  0
TEXT
  5
AA9
330
AA4
100
AcDbEntity
  8
Dimension015
100
AcDbText
 10
114.316
 20
177.401
 30
0
 40
3.5
  1
0.3
  7
STANDARD
 72
1
 11
109.316
 21
177.401
 31
0
100
AcDbText
  0
SOLID
  5
AAA
330
AA4
100
AcDbEntity
  8
0
 62
     0
100
AcDbTrace
 10
108.899
 20
168.602
 30
0
 11
109.733
 21
168.602
 31
0
 12
109.316
 22
173.602
 32
0
 13
109.316
 23
173.602
 33
0
  0
SOLID
  5
AAB
330
AA4
100
AcDbEntity
  8
0
 62
     0
100
AcDbTrace
 10
108.899
 20
186.2
 30
0
 11
109.733
 21
186.2
 31
0
 12
109.316
 22
181.2
 32
0
 13
109.316
 23
181.2
 33
0
  0
ENDBLK
  5
AAC
330
AA4
100
AcDbEntity
  8
Dimension015
100
AcDbBlockEnd
  0
BLOCK
  5
AAF
330
AAE
100
AcDbEntity
  8
Dimension016
100
AcDbBlockBegin
  2
*Dimension016
 70
   1
 10
0
 20
0
 30
0
  3
*Dimension016
  1
 
  0
LINE
  5
AB0
330
AAE
100
AcDbEntity
  8
Dimension016
100
AcDbLine
 10
21.5
 20
173.602
 30
0
 11
21.5
 21
181.104
 31
0
  0
LINE
  5
AB1
330
AAE
100
AcDbEntity
  8
Dimension016
100
AcDbLine
 10
114.316
 20
173.602
 30
0
 11
114.316
 21
181.104
 31
0
  0
LINE
  5
AB2
330
AAE
100
AcDbEntity
  8
Dimension016
100
AcDbLine
 10
114.316
 20
181.104
 30
0
 11
21.5
 21
181.104
 31
0
  0
TEXT
  5
AB3
330
AAE
100
AcDbEntity
  8
Dimension016
100
AcDbText
 10
67.9081
 20
176.104
 30
0
 40
3.5
  1
3.65
  7
STANDARD
 72
1
 11
67.9081
 21
181.104
 31
0
100
AcDbText
  0
SOLID
  5
AB4
330
AAE
100
AcDbEntity
  8
0
 62
     0
100
AcDbTrace
 10
119.316
 20
181.52
 30
0
 11
119.316
 21
180.687
 31
0
 12
114.316
 22
181.104
 32
0
 13
114.316
 23
181.104
 33
0
  0
SOLID
  5
AB5
330
AAE
100
AcDbEntity
  8
0
 62
     0
100
AcDbTrace
 10
16.5
 20
181.52
 30
0
 11
16.5
 21
180.687
 31
0
 12
21.5
 22
181.104
 32
0
 13
21.5
 23
181.104
 33
0
  0
ENDBLK
  5
AB6
330
AAE
100
AcDbEntity
  8
Dimension016
100
AcDbBlockEnd
  0
ENDSEC
  0
SECTION
  2
ENTITIES
  0
LINE
  5
A08
330
A02
100
AcDbEntity
  8
View
100
AcDbLine
 10
275.500000000
 20
79.600000000
 30
0.000000000
 11
275.500000000
 21
130.400000000
 31
0.000000000
  0
LINE
  5
A09
330
A02
100
AcDbEntity
  8
View
100
AcDbLine
 10
275.500000000
 20
79.600000000
 30
0.000000000
 11
224.700000000
 21
28.800000000
 31
0.000000000
  0
LINE
  5
A0A
330
A02
100
AcDbEntity
  8
View
100
AcDbLine
 10
275.500000000
 20
130.400000000
 30
0.000000000
 11
224.700000000
 21
181.200000000
 31
0.000000000
  0
LINE
  5
A0B
330
A02
100
AcDbEntity
  8
View
100
AcDbLine
 10
85.000000000
 20
28.800000000
 30
0.000000000
 11
224.700000000
 21
28.800000000
 31
0.000000000
  0
LINE
  5
A0C
330
A02
100
AcDbEntity
  8
View
100
AcDbLine
 10
85.000000000
 20
28.800000000
 30
0.000000000
 11
85.000000000
 21
54.200000000
 31
0.000000000
  0
LINE
  5
A0D
330
A02
100
AcDbEntity
  8
View
100
AcDbLine
 10
224.700000000
 20
181.200000000
 30
0.000000000
 11
21.500000000
 21
181.200000000
 31
0.000000000
  0
LINE
  5
A0E
330
A02
100
AcDbEntity
  8
View
100
AcDbLine
 10
85.000000000
 20
54.200000000
 30
0.000000000
 11
21.500000000
 21
54.200000000
 31
0.000000000
  0
LINE
  5
A0F
330
A02
100
AcDbEntity
  8
View
100
AcDbLine
 10
21.500000000
 20
181.200000000
 30
0.000000000
 11
21.500000000
 21
54.200000000
 31
0.000000000
  0
CIRCLE
  5
A10
330
A02
100
AcDbEntity
  8
View
100
AcDbCircle
 10
173.900000000
 20
73.250000000
 30
0.000000000
 40
4.826000000
  0
CIRCLE
  5
A11
330
A02
100
AcDbEntity
  8
View
100
AcDbCircle
 10
237.400000000
 20
73.250000000
 30
0.000000000
 40
4.826000000
  0
CIRCLE
  5
A12
330
A02
100
AcDbEntity
  8
View
100
AcDbCircle
 10
205.650000000
 20
105.000000000
 30
0.000000000
 40
11.112500000
  0
CIRCLE
  5
A13
330
A02
100
AcDbEntity
  8
View
100
AcDbCircle
 10
173.900000000
 20
136.750000000
 30
0.000000000
 40
4.826000000
  0
CIRCLE
  5
A14
330
A02
100
AcDbEntity
  8
View
100
AcDbCircle
 10
114.316138000
 20
173.601743000
 30
0.000000000
 40
2.540000000
  0
CIRCLE
  5
A15
330
A02
100
AcDbEntity
  8
View
100
AcDbCircle
 10
237.400000000
 20
136.750000000
 30
0.000000000
 40
4.826000000
  0
CIRCLE
  5
A16
330
A02
100
AcDbEntity
  8
View
100
AcDbCircle
 10
203.110000000
 20
159.610000000
 30
0.000000000
 40
6.985000000
  0
DIMENSION
  5
A17
330
A02
100
AcDbEntity
  8
Dimension
100
AcDbDimension
  2
*Dimension
 10
83.878305000
 20
198.120057000
 30
0.000000000
 11
83.878305000
 21
193.120057000
 31
0.000000000
 70
32
  1
8
  3
STANDARD
100
AcDbAlignedDimension
 13
224.700000000
 23
181.200000000
 33
0.000000000
 14
21.500000000
 24
181.200000000
 34
0.000000000
100
AcDbRotatedDimension
  0
DIMENSION
  5
A21
330
A02
100
AcDbEntity
  8
Dimension001
100
AcDbDimension
  2
*Dimension001
 10
14.591123000
 20
110.330989000
 30
0.000000000
 11
9.591123000
 21
110.330989000
 31
0.000000000
 70
32
  1
5
  3
STANDARD
100
AcDbAlignedDimension
 13
21.500000000
 23
181.200000000
 33
0.000000000
 14
21.500000000
 24
54.200000000
 34
0.000000000
 50
90
100
AcDbRotatedDimension
  0
DIMENSION
  5
A2B
330
A02
100
AcDbEntity
  8
Dimension002
100
AcDbDimension
  2
*Dimension002
 10
58.541114000
 20
50.189747000
 30
0.000000000
 11
58.541114000
 21
45.189747000
 31
0.000000000
 70
32
  1
2.5
  3
STANDARD
100
AcDbAlignedDimension
 13
85.000000000
 23
54.200000000
 33
0.000000000
 14
21.500000000
 24
54.200000000
 34
0.000000000
100
AcDbRotatedDimension
  0
DIMENSION
  5
A35
330
A02
100
AcDbEntity
  8
Dimension003
100
AcDbDimension
  2
*Dimension003
 10
65.319149000
 20
41.500000000
 30
0.000000000
 11
70.319149000
 21
41.500000000
 31
0.000000000
 70
32
  1
1
  3
STANDARD
100
AcDbAlignedDimension
 13
85.000000000
 23
28.800000000
 33
0.000000000
 14
85.000000000
 24
54.200000000
 34
0.000000000
 50
90
100
AcDbRotatedDimension
  0
DIMENSION
  5
A3F
330
A02
100
AcDbEntity
  8
Dimension004
100
AcDbDimension
  2
*Dimension004
 10
142.211888000
 20
17.610910000
 30
0.000000000
 11
142.211888000
 21
22.610910000
 31
0.000000000
 70
32
  1
5.5
  3
STANDARD
100
AcDbAlignedDimension
 13
85.000000000
 23
28.800000000
 33
0.000000000
 14
224.700000000
 24
28.800000000
 34
0.000000000
100
AcDbRotatedDimension
  0
DIMENSION
  5
A49
330
A02
100
AcDbEntity
  8
Dimension005
100
AcDbDimension
  2
*Dimension005
 10
148.500000000
 20
205.120056000
 30
0.000000000
 11
148.500000000
 21
200.120056000
 31
0.000000000
 70
32
  1
10
  3
STANDARD
100
AcDbAlignedDimension
 13
275.500000000
 23
130.400000000
 33
0.000000000
 14
21.500000000
 24
130.400000000
 34
0.000000000
100
AcDbRotatedDimension
  0
DIMENSION
  5
A53
330
A02
100
AcDbEntity
  8
Dimension006
100
AcDbDimension
  2
*Dimension006
 10
178.900000000
 20
105.000000000
 30
0.000000000
 11
173.900000000
 21
105.000000000
 31
0.000000000
 70
32
  1
2.5
  3
STANDARD
100
AcDbAlignedDimension
 13
173.900000000
 23
136.750000000
 33
0.000000000
 14
173.900000000
 24
73.250000000
 34
0.000000000
 50
90
100
AcDbRotatedDimension
  0
DIMENSION
  5
A5D
330
A02
100
AcDbEntity
  8
Dimension008
100
AcDbDimension
  2
*Dimension008
 10
240.575000000
 20
102.501900000
 30
0.000000000
 11
240.575000000
 21
107.501900000
 31
0.000000000
 70
32
  1
2.75
  3
STANDARD
100
AcDbAlignedDimension
 13
205.650000000
 23
105.000000000
 33
0.000000000
 14
275.500000000
 24
105.000000000
 34
0.000000000
100
AcDbRotatedDimension
  0
DIMENSION
  5
A67
330
A02
100
AcDbEntity
  8
Dimension009
100
AcDbDimension
  2
*Dimension009
 10
200.650000000
 20
143.100000000
 30
0.000000000
 11
205.650000000
 21
143.100000000
 31
0.000000000
 70
32
  1
3
  3
STANDARD
100
AcDbAlignedDimension
 13
205.650000000
 23
105.000000000
 33
0.000000000
 14
205.650000000
 24
181.200000000
 34
0.000000000
 50
90
100
AcDbRotatedDimension
  0
DIMENSION
  5
A71
330
A02
100
AcDbEntity
  8
Dimension010
100
AcDbDimension
  2
*Dimension010
 10
168.900000000
 20
158.975000000
 30
0.000000000
 11
173.900000000
 21
158.975000000
 31
0.000000000
 70
32
  1
1.75
  3
STANDARD
100
AcDbAlignedDimension
 13
173.900000000
 23
136.750000000
 33
0.000000000
 14
173.900000000
 24
181.200000000
 34
0.000000000
 50
90
100
AcDbRotatedDimension
  0
DIMENSION
  5
A7B
330
A02
100
AcDbEntity
  8
Dimension011
100
AcDbDimension
  2
*Dimension011
 10
224.700000000
 20
125.400000000
 30
0.000000000
 11
224.700000000
 21
130.400000000
 31
0.000000000
 70
32
  1
4
  3
STANDARD
100
AcDbAlignedDimension
 13
173.900000000
 23
136.750000000
 33
0.000000000
 14
275.500000000
 24
136.750000000
 34
0.000000000
100
AcDbRotatedDimension
  0
DIMENSION
  5
A85
330
A02
100
AcDbEntity
  8
Dimension012
100
AcDbDimension
  2
*Dimension012
 10
205.650000000
 20
70.751901000
 30
0.000000000
 11
205.650000000
 21
75.751901000
 31
0.000000000
 70
32
  1
2.5
  3
STANDARD
100
AcDbAlignedDimension
 13
173.900000000
 23
73.250000000
 33
0.000000000
 14
237.400000000
 24
73.250000000
 34
0.000000000
100
AcDbRotatedDimension
  0
DIMENSION
  5
A8F
330
A02
100
AcDbEntity
  8
Dimension013
100
AcDbDimension
  2
*Dimension013
 10
198.109998000
 20
170.405000000
 30
0.000000000
 11
203.109998000
 21
170.405000000
 31
0.000000000
 70
32
  1
0.85
  3
STANDARD
100
AcDbAlignedDimension
 13
203.110000000
 23
159.610000000
 33
0.000000000
 14
203.110000000
 24
181.200000000
 34
0.000000000
 50
90
100
AcDbRotatedDimension
  0
DIMENSION
  5
A99
330
A02
100
AcDbEntity
  8
Dimension014
100
AcDbDimension
  2
*Dimension014
 10
239.305000000
 20
157.111902000
 30
0.000000000
 11
239.305000000
 21
162.111902000
 31
0.000000000
 70
32
  1
2.85
  3
STANDARD
100
AcDbAlignedDimension
 13
203.110000000
 23
159.610000000
 33
0.000000000
 14
275.500000000
 24
159.610000000
 34
0.000000000
100
AcDbRotatedDimension
  0
DIMENSION
  5
AA3
330
A02
100
AcDbEntity
  8
Dimension015
100
AcDbDimension
  2
*Dimension015
 10
109.316138000
 20
177.400871000
 30
0.000000000
 11
114.316138000
 21
177.400871000
 31
0.000000000
 70
32
  1
0.3
  3
STANDARD
100
AcDbAlignedDimension
 13
114.316138000
 23
173.601743000
 33
0.000000000
 14
114.316138000
 24
181.200000000
 34
0.000000000
 50
90
100
AcDbRotatedDimension
  0
DIMENSION
  5
AAD
330
A02
100
AcDbEntity
  8
Dimension016
100
AcDbDimension
  2
*Dimension016
 10
67.908069000
 20
181.103644000
 30
0.000000000
 11
67.908069000
 21
176.103644000
 31
0.000000000
 70
32
  1
3.65
  3
STANDARD
100
AcDbAlignedDimension
 13
114.316138000
 23
173.601743000
 33
0.000000000
 14
21.500000000
 24
173.601743000
 34
0.000000000
100
AcDbRotatedDimension
  0
ENDSEC
  0
SECTION
  2
OBJECTS
  0
DICTIONARY
  5
F000
330
0
100
AcDbDictionary
  3
ACAD_GROUP
350
F001
  0
DICTIONARY
  5
F001
330
F000
100
AcDbDictionary
  0
ENDSEC
  0
EOF