999
FreeCAD v1.2 44682 (Git)
  0
SECTION
  2
HEADER
  9
$ACADVER
  1
AC1014
  9
$ACADMAINTVER
 70
     9
  9
$DWGCODEPAGE
  3
ANSI_1252
  9
$TEXTSTYLE
  7
STANDARD
  9
$DIMSTYLE
  2
STANDARD
  9
$DIMTXSTY
  7
STANDARD
  9
$CMLSTYLE
  2
STANDARD
  9
$LUNITS
 70
2
  9
$INSUNITS
 70
4
  9
$PEXTMAX
 10
50
 20
50
 30
50
  9
$PEXTMIN
 10
0
 20
0
 30
0
  9
$HANDSEED
  5
FFFF
  0
ENDSEC
  0
SECTION
  2
CLASSES
  0
CLASS
  1
ACDBDICTIONARYWDFLT
  2
AcDbDictionaryWithDefault
  3
ObjectDBX Classes
 90
        0
280
     0
281
     0
  0
CLASS
  1
XRECORD
  2
AcDbXrecord
  3
ObjectDBX Classes
 90
        0
280
     0
281
     0
  0
CLASS
  1
LWPOLYLINE
  2
AcDbPolyline
  3
ObjectDBX Classes
 90
        0
280
     0
281
     1
  0
ENDSEC
  0
SECTION
  2
TABLES
  0
TABLE
  2
VPORT
  5
20
330
0
100
AcDbSymbolTable
 70
     1
  0
VPORT
  5
21
330
20
100
AcDbSymbolTableRecord
100
AcDbViewportTableRecord
  2
*ACTIVE
 70
     0
  0
ENDTAB
  0
TABLE
  2
LTYPE
  5
22
330
0
100
AcDbSymbolTable
 70
     1
  0
LTYPE
  5
23
330
21
100
AcDbSymbolTableRecord
100
AcDbLinetypeTableRecord
  2
BYBLOCK
 70
     0
  3

 72
    65
 73
     0
 40
0.0
  0
LTYPE
  5
24
330
21
100
AcDbSymbolTableRecord
100
AcDbLinetypeTableRecord
  2
BYLAYER
 70
     0
  3

 72
    65
 73
     0
 40
0.0
  0
LTYPE
  5
25
330
21
100
AcDbSymbolTableRecord
100
AcDbLinetypeTableRecord
  2
CONTINUOUS
 70
     0
  3
Solid line
 72
    65
 73
     0
 40
0.0
  0
ENDTAB
  0
TABLE
  2
LAYER
  5
A4C
330
0
100
AcDbSymbolTable
 70
8
  0
LAYER
  5
A4D
330
A4C
100
AcDbSymbolTableRecord
100
AcDbLayerTableRecord
  2
0
 70
   0
 62
   7
  6
CONTINUOUS
  0
LAYER
  5
A4E
330
A4C
100
AcDbSymbolTableRecord
100
AcDbLayerTableRecord
  2
View
 70
    0
 62
    7
  6
CONTINUOUS
  0
LAYER
  5
A4F
330
A4C
100
AcDbSymbolTableRecord
100
AcDbLayerTableRecord
  2
Dimension002
 70
    0
 62
    7
  6
CONTINUOUS
  0
LAYER
  5
A50
330
A4C
100
AcDbSymbolTableRecord
100
AcDbLayerTableRecord
  2
Dimension003
 70
    0
 62
    7
  6
CONTINUOUS
  0
LAYER
  5
A51
330
A4C
100
AcDbSymbolTableRecord
100
AcDbLayerTableRecord
  2
Dimension005
 70
    0
 62
    7
  6
CONTINUOUS
  0
LAYER
  5
A52
330
A4C
100
AcDbSymbolTableRecord
100
AcDbLayerTableRecord
  2
Dimension006
 70
    0
 62
    7
  6
CONTINUOUS
  0
LAYER
  5
A53
330
A4C
100
AcDbSymbolTableRecord
100
AcDbLayerTableRecord
  2
Dimension007
 70
    0
 62
    7
  6
CONTINUOUS
  0
LAYER
  5
A54
330
A4C
100
AcDbSymbolTableRecord
100
AcDbLayerTableRecord
  2
Dimension008
 70
    0
 62
    7
  6
CONTINUOUS
  0
ENDTAB
  0
TABLE
  2
STYLE
  5
70
330
0
100
AcDbSymbolTable
 70
     2
  0
STYLE
  5
71
330
70
100
AcDbSymbolTableRecord
100
AcDbTextStyleTableRecord
  2
STANDARD
 70
     0
 40
0.0
 41
1.0
 50
0.0
 71
     0
 42
2.5
  3
arial.ttf
  4

  0
STYLE
  5
72
330
70
100
AcDbSymbolTableRecord
100
AcDbTextStyleTableRecord
  2
ANNOTATIVE
 70
     0
 40
0.0
 41
1.0
 50
0.0
 71
     0
 42
2.5
  3
arial.ttf
  4

  0
ENDTAB
  0
TABLE
  2
VIEW
  5
73
330
0
100
AcDbSymbolTable
 70
     0
  0
ENDTAB
  0
TABLE
  2
UCS
  5
74
330
0
100
AcDbSymbolTable
 70
     0
  0
ENDTAB
  0
TABLE
  2
APPID
  5
75
330
0
100
AcDbSymbolTable
 70
     2
  0
APPID
  5
76
330
75
100
AcDbSymbolTableRecord
100
AcDbRegAppTableRecord
  2
ACAD
 70
     0
  0
APPID
  5
77
330
75
100
AcDbSymbolTableRecord
100
AcDbRegAppTableRecord
  2
ACADANNOTATIVE
 70
     0
  0
ENDTAB
  0
TABLE
  2
DIMSTYLE
  5
78
330
0
100
AcDbSymbolTable
 70
     2
  0
DIMSTYLE
105
79
330
78
100
AcDbSymbolTableRecord
100
AcDbDimStyleTableRecord
  2
STANDARD
 70
     0
  3

  4

  5

  6

  7

 40
0.0
 41
2.5
 42
0.625
 43
3.75
 44
1.25
 45
0.0
 46
0.0
 47
0.0
 48
0.0
140
2.5
141
2.5
142
0.0
143
0.03937007874016
144
1.0
145
0.0
146
1.0
147
0.625
 71
     0
 72
     0
 73
     0
 74
     0
 75
     0
 76
     0
 77
     1
 78
     8
170
     0
171
     3
172
     1
173
     0
174
     0
175
     0
176
     0
177
     0
178
     0
270
     2
271
     2
272
     2
273
     2
274
     3
340
71
275
     0
280
     0
281
     0
282
     0
283
     0
284
     8
285
     0
286
     0
287
     3
288
     0
  0
ENDTAB
  0
TABLE
  2
BLOCK_RECORD
  5
A01
330
0
100
AcDbSymbolTable
  70
5
  0
BLOCK_RECORD
  5
A02
330
A01
100
AcDbSymbolTableRecord
100
AcDbBlockTableRecord
  2
*MODEL_SPACE
  0
BLOCK_RECORD
  5
A03
330
A01
100
AcDbSymbolTableRecord
100
AcDbBlockTableRecord
  2
*PAPER_SPACE
  0
BLOCK_RECORD
  5
A11
330
A01
100
AcDbSymbolTableRecord
100
AcDbBlockTableRecord
  2
*Dimension002
  0
BLOCK_RECORD
  5
A1B
330
A01
100
AcDbSymbolTableRecord
100
AcDbBlockTableRecord
  2
*Dimension003
  0
BLOCK_RECORD
  5
A25
330
A01
100
AcDbSymbolTableRecord
100
AcDbBlockTableRecord
  2
*Dimension005
  0
BLOCK_RECORD
  5
A2F
330
A01
100
AcDbSymbolTableRecord
100
AcDbBlockTableRecord
  2
*Dimension006
  0
BLOCK_RECORD
  5
A39
330
A01
100
AcDbSymbolTableRecord
100
AcDbBlockTableRecord
  2
*Dimension007
  0
BLOCK_RECORD
  5
A43
330
A01
100
AcDbSymbolTableRecord
100
AcDbBlockTableRecord
  2
*Dimension008
  0
ENDTAB
  0
ENDSEC
  0
SECTION
  2
BLOCKS
  0
BLOCK
  5
A04
330
A02
100
AcDbEntity
  8
0
100
AcDbBlockBegin
  2
*MODEL_SPACE
 70
   0
 10
0
 20
0
 30
0
  3
*MODEL_SPACE
  1
 
  0
ENDBLK
  5
A05
330
A02
100
AcDbEntity
  8
0
100
AcDbBlockEnd
  0
BLOCK
  5
A06
330
A03
100
AcDbEntity
 67
1
  8
0
100
AcDbBlockBegin
  2
*PAPER_SPACE
 70
   0
 10
0
 20
0
 30
0
  3
*PAPER_SPACE
  1
 
  0
ENDBLK
  5
A07
330
A03
100
AcDbEntity
 67
    1
  8
0
100
AcDbBlockEnd
  0
BLOCK
  5
A12
330
A11
100
AcDbEntity
  8
Dimension002
100
AcDbBlockBegin
  2
*Dimension002
 70
   1
 10
0
 20
0
 30
0
  3
*Dimension002
  1
 
  0
LINE
  5
A13
330
A11
100
AcDbEntity
  8
Dimension002
100
AcDbLine
 10
72.3
 20
193.9
 30
0
 11
54.6
 21
193.9
 31
0
  0
LINE
  5
A14
330
A11
100
AcDbEntity
  8
Dimension002
100
AcDbLine
 10
72.3
 20
16.1
 30
0
 11
54.6
 21
16.1
 31
0
  0
LINE
  5
A15
330
A11
100
AcDbEntity
  8
Dimension002
100
AcDbLine
 10
54.6
 20
16.1
 30
0
 11
54.6
 21
193.9
 31
0
  0
TEXT
  5
A16
330
A11
100
AcDbEntity
  8
Dimension002
100
AcDbText
 10
59.6
 20
111.081
 30
0
 40
3.5
  1
7
  7
STANDARD
 72
1
 11
54.6
 21
111.081
 31
0
100
AcDbText
  0
SOLID
  5
A17
330
A11
100
AcDbEntity
  8
0
 62
     0
100
AcDbTrace
 10
54.1833
 20
11.1
 30
0
 11
55.0167
 21
11.1
 31
0
 12
54.6
 22
16.1
 32
0
 13
54.6
 23
16.1
 33
0
  0
SOLID
  5
A18
330
A11
100
AcDbEntity
  8
0
 62
     0
100
AcDbTrace
 10
54.1833
 20
198.9
 30
0
 11
55.0167
 21
198.9
 31
0
 12
54.6
 22
193.9
 32
0
 13
54.6
 23
193.9
 33
0
  0
ENDBLK
  5
A19
330
A11
100
AcDbEntity
  8
Dimension002
100
AcDbBlockEnd
  0
BLOCK
  5
A1C
330
A1B
100
AcDbEntity
  8
Dimension003
100
AcDbBlockBegin
  2
*Dimension003
 70
   1
 10
0
 20
0
 30
0
  3
*Dimension003
  1
 
  0
LINE
  5
A1D
330
A1B
100
AcDbEntity
  8
Dimension003
100
AcDbLine
 10
224.7
 20
193.9
 30
0
 11
224.7
 21
201.155
 31
0
  0
LINE
  5
A1E
330
A1B
100
AcDbEntity
  8
Dimension003
100
AcDbLine
 10
72.3
 20
193.9
 30
0
 11
72.3
 21
201.155
 31
0
  0
LINE
  5
A1F
330
A1B
100
AcDbEntity
  8
Dimension003
100
AcDbLine
 10
72.3
 20
201.155
 30
0
 11
224.7
 21
201.155
 31
0
  0
TEXT
  5
A20
330
A1B
100
AcDbEntity
  8
Dimension003
100
AcDbText
 10
106.996
 20
206.155
 30
0
 40
3.5
  1
6
  7
STANDARD
 72
1
 11
106.996
 21
201.155
 31
0
100
AcDbText
  0
SOLID
  5
A21
330
A1B
100
AcDbEntity
  8
0
 62
     0
100
AcDbTrace
 10
67.3
 20
201.571
 30
0
 11
67.3
 21
200.738
 31
0
 12
72.3
 22
201.155
 32
0
 13
72.3
 23
201.155
 33
0
  0
SOLID
  5
A22
330
A1B
100
AcDbEntity
  8
0
 62
     0
100
AcDbTrace
 10
229.7
 20
201.571
 30
0
 11
229.7
 21
200.738
 31
0
 12
224.7
 22
201.155
 32
0
 13
224.7
 23
201.155
 33
0
  0
ENDBLK
  5
A23
330
A1B
100
AcDbEntity
  8
Dimension003
100
AcDbBlockEnd
  0
BLOCK
  5
A26
330
A25
100
AcDbEntity
  8
Dimension005
100
AcDbBlockBegin
  2
*Dimension005
 70
   1
 10
0
 20
0
 30
0
  3
*Dimension005
  1
 
  0
LINE
  5
A27
330
A25
100
AcDbEntity
  8
Dimension005
100
AcDbLine
 10
175.487
 20
181.2
 30
0
 11
175.487
 21
178.702
 31
0
  0
LINE
  5
A28
330
A25
100
AcDbEntity
  8
Dimension005
100
AcDbLine
 10
115.162
 20
181.2
 30
0
 11
115.162
 21
178.702
 31
0
  0
LINE
  5
A29
330
A25
100
AcDbEntity
  8
Dimension005
100
AcDbLine
 10
115.162
 20
178.702
 30
0
 11
175.487
 21
178.702
 31
0
  0
TEXT
  5
A2A
330
A25
100
AcDbEntity
  8
Dimension005
100
AcDbText
 10
145.325
 20
183.702
 30
0
 40
3.5
  1
2.375
  7
STANDARD
 72
1
 11
145.325
 21
178.702
 31
0
100
AcDbText
  0
SOLID
  5
A2B
330
A25
100
AcDbEntity
  8
0
 62
     0
100
AcDbTrace
 10
110.162
 20
178.285
 30
0
 11
110.162
 21
179.119
 31
0
 12
115.162
 22
178.702
 32
0
 13
115.162
 23
178.702
 33
0
  0
SOLID
  5
A2C
330
A25
100
AcDbEntity
  8
0
 62
     0
100
AcDbTrace
 10
180.487
 20
178.285
 30
0
 11
180.487
 21
179.119
 31
0
 12
175.487
 22
178.702
 32
0
 13
175.487
 23
178.702
 33
0
  0
ENDBLK
  5
A2D
330
A25
100
AcDbEntity
  8
Dimension005
100
AcDbBlockEnd
  0
BLOCK
  5
A30
330
A2F
100
AcDbEntity
  8
Dimension006
100
AcDbBlockBegin
  2
*Dimension006
 70
   1
 10
0
 20
0
 30
0
  3
*Dimension006
  1
 
  0
LINE
  5
A31
330
A2F
100
AcDbEntity
  8
Dimension006
100
AcDbLine
 10
115.162
 20
193.9
 30
0
 11
110.162
 21
193.9
 31
0
  0
LINE
  5
A32
330
A2F
100
AcDbEntity
  8
Dimension006
100
AcDbLine
 10
115.162
 20
181.2
 30
0
 11
110.162
 21
181.2
 31
0
  0
LINE
  5
A33
330
A2F
100
AcDbEntity
  8
Dimension006
100
AcDbLine
 10
110.162
 20
181.2
 30
0
 11
110.162
 21
193.9
 31
0
  0
TEXT
  5
A34
330
A2F
100
AcDbEntity
  8
Dimension006
100
AcDbText
 10
115.162
 20
187.55
 30
0
 40
3.5
  1
0.5
  7
STANDARD
 72
1
 11
110.162
 21
187.55
 31
0
100
AcDbText
  0
SOLID
  5
A35
330
A2F
100
AcDbEntity
  8
0
 62
     0
100
AcDbTrace
 10
109.746
 20
176.2
 30
0
 11
110.579
 21
176.2
 31
0
 12
110.162
 22
181.2
 32
0
 13
110.162
 23
181.2
 33
0
  0
SOLID
  5
A36
330
A2F
100
AcDbEntity
  8
0
 62
     0
100
AcDbTrace
 10
109.746
 20
198.9
 30
0
 11
110.579
 21
198.9
 31
0
 12
110.162
 22
193.9
 32
0
 13
110.162
 23
193.9
 33
0
  0
ENDBLK
  5
A37
330
A2F
100
AcDbEntity
  8
Dimension006
100
AcDbBlockEnd
  0
BLOCK
  5
A3A
330
A39
100
AcDbEntity
  8
Dimension007
100
AcDbBlockBegin
  2
*Dimension007
 70
   1
 10
0
 20
0
 30
0
  3
*Dimension007
  1
 
  0
LINE
  5
A3B
330
A39
100
AcDbEntity
  8
Dimension007
100
AcDbLine
 10
115.162
 20
111.35
 30
0
 11
120.162
 21
111.35
 31
0
  0
LINE
  5
A3C
330
A39
100
AcDbEntity
  8
Dimension007
100
AcDbLine
 10
115.162
 20
181.2
 30
0
 11
120.162
 21
181.2
 31
0
  0
LINE
  5
A3D
330
A39
100
AcDbEntity
  8
Dimension007
100
AcDbLine
 10
120.162
 20
181.2
 30
0
 11
120.162
 21
111.35
 31
0
  0
TEXT
  5
A3E
330
A39
100
AcDbEntity
  8
Dimension007
100
AcDbText
 10
115.162
 20
146.275
 30
0
 40
3.5
  1
2.75
  7
STANDARD
 72
1
 11
120.162
 21
146.275
 31
0
100
AcDbText
  0
SOLID
  5
A3F
330
A39
100
AcDbEntity
  8
0
 62
     0
100
AcDbTrace
 10
120.579
 20
186.2
 30
0
 11
119.746
 21
186.2
 31
0
 12
120.162
 22
181.2
 32
0
 13
120.162
 23
181.2
 33
0
  0
SOLID
  5
A40
330
A39
100
AcDbEntity
  8
0
 62
     0
100
AcDbTrace
 10
120.579
 20
106.35
 30
0
 11
119.746
 21
106.35
 31
0
 12
120.162
 22
111.35
 32
0
 13
120.162
 23
111.35
 33
0
  0
ENDBLK
  5
A41
330
A39
100
AcDbEntity
  8
Dimension007
100
AcDbBlockEnd
  0
BLOCK
  5
A44
330
A43
100
AcDbEntity
  8
Dimension008
100
AcDbBlockBegin
  2
*Dimension008
 70
   1
 10
0
 20
0
 30
0
  3
*Dimension008
  1
 
  0
LINE
  5
A45
330
A43
100
AcDbEntity
  8
Dimension008
100
AcDbLine
 10
72.3
 20
181.2
 30
0
 11
72.3
 21
188.702
 31
0
  0
LINE
  5
A46
330
A43
100
AcDbEntity
  8
Dimension008
100
AcDbLine
 10
115.162
 20
181.2
 30
0
 11
115.162
 21
188.702
 31
0
  0
LINE
  5
A47
330
A43
100
AcDbEntity
  8
Dimension008
100
AcDbLine
 10
115.162
 20
188.702
 30
0
 11
72.3
 21
188.702
 31
0
  0
TEXT
  5
A48
330
A43
100
AcDbEntity
  8
Dimension008
100
AcDbText
 10
93.7313
 20
183.702
 30
0
 40
3.5
  1
1.6875
  7
STANDARD
 72
1
 11
93.7313
 21
188.702
 31
0
100
AcDbText
  0
SOLID
  5
A49
330
A43
100
AcDbEntity
  8
0
 62
     0
100
AcDbTrace
 10
120.162
 20
189.119
 30
0
 11
120.162
 21
188.285
 31
0
 12
115.162
 22
188.702
 32
0
 13
115.162
 23
188.702
 33
0
  0
SOLID
  5
A4A
330
A43
100
AcDbEntity
  8
0
 62
     0
100
AcDbTrace
 10
67.3
 20
189.119
 30
0
 11
67.3
 21
188.285
 31
0
 12
72.3
 22
188.702
 32
0
 13
72.3
 23
188.702
 33
0
  0
ENDBLK
  5
A4B
330
A43
100
AcDbEntity
  8
Dimension008
100
AcDbBlockEnd
  0
ENDSEC
  0
SECTION
  2
ENTITIES
  0
LINE
  5
A08
330
A02
100
AcDbEntity
  8
View
100
AcDbLine
 10
224.700000000
 20
193.900000000
 30
0.000000000
 11
224.700000000
 21
16.100000000
 31
0.000000000
  0
LINE
  5
A09
330
A02
100
AcDbEntity
  8
View
100
AcDbLine
 10
224.700000000
 20
16.100000000
 30
0.000000000
 11
72.300000000
 21
16.100000000
 31
0.000000000
  0
LINE
  5
A0A
330
A02
100
AcDbEntity
  8
View
100
AcDbLine
 10
72.300000000
 20
16.100000000
 30
0.000000000
 11
72.300000000
 21
193.900000000
 31
0.000000000
  0
LINE
  5
A0B
330
A02
100
AcDbEntity
  8
View
100
AcDbLine
 10
72.300000000
 20
193.900000000
 30
0.000000000
 11
224.700000000
 21
193.900000000
 31
0.000000000
  0
CIRCLE
  5
A0C
330
A02
100
AcDbEntity
  8
View
100
AcDbCircle
 10
175.487500000
 20
181.200000000
 30
0.000000000
 40
4.826000000
  0
CIRCLE
  5
A0D
330
A02
100
AcDbEntity
  8
View
100
AcDbCircle
 10
115.162500000
 20
181.200000000
 30
0.000000000
 40
4.826000000
  0
CIRCLE
  5
A0E
330
A02
100
AcDbEntity
  8
View
100
AcDbCircle
 10
175.487500000
 20
111.350000000
 30
0.000000000
 40
4.826000000
  0
CIRCLE
  5
A0F
330
A02
100
AcDbEntity
  8
View
100
AcDbCircle
 10
115.162500000
 20
111.350000000
 30
0.000000000
 40
4.826000000
  0
DIMENSION
  5
A10
330
A02
100
AcDbEntity
  8
Dimension002
100
AcDbDimension
  2
*Dimension002
 10
54.600000000
 20
111.080503000
 30
0.000000000
 11
59.600000000
 21
111.080503000
 31
0.000000000
 70
32
  1
7
  3
STANDARD
100
AcDbAlignedDimension
 13
72.300000000
 23
16.100000000
 33
0.000000000
 14
72.300000000
 24
193.900000000
 34
0.000000000
 50
90
100
AcDbRotatedDimension
  0
DIMENSION
  5
A1A
330
A02
100
AcDbEntity
  8
Dimension003
100
AcDbDimension
  2
*Dimension003
 10
106.996454000
 20
201.154535000
 30
0.000000000
 11
106.996454000
 21
206.154535000
 31
0.000000000
 70
32
  1
6
  3
STANDARD
100
AcDbAlignedDimension
 13
72.300000000
 23
193.900000000
 33
0.000000000
 14
224.700000000
 24
193.900000000
 34
0.000000000
100
AcDbRotatedDimension
  0
DIMENSION
  5
A24
330
A02
100
AcDbEntity
  8
Dimension005
100
AcDbDimension
  2
*Dimension005
 10
145.325000000
 20
178.701898000
 30
0.000000000
 11
145.325000000
 21
183.701898000
 31
0.000000000
 70
32
  1
2.375
  3
STANDARD
100
AcDbAlignedDimension
 13
115.162500000
 23
181.200000000
 33
0.000000000
 14
175.487500000
 24
181.200000000
 34
0.000000000
100
AcDbRotatedDimension
  0
DIMENSION
  5
A2E
330
A02
100
AcDbEntity
  8
Dimension006
100
AcDbDimension
  2
*Dimension006
 10
110.162500000
 20
187.550000000
 30
0.000000000
 11
115.162500000
 21
187.550000000
 31
0.000000000
 70
32
  1
0.5
  3
STANDARD
100
AcDbAlignedDimension
 13
115.162500000
 23
181.200000000
 33
0.000000000
 14
115.162500000
 24
193.900000000
 34
0.000000000
 50
90
100
AcDbRotatedDimension
  0
DIMENSION
  5
A38
330
A02
100
AcDbEntity
  8
Dimension007
100
AcDbDimension
  2
*Dimension007
 10
120.162500000
 20
146.275000000
 30
0.000000000
 11
115.162500000
 21
146.275000000
 31
0.000000000
 70
32
  1
2.75
  3
STANDARD
100
AcDbAlignedDimension
 13
115.162500000
 23
181.200000000
 33
0.000000000
 14
115.162500000
 24
111.350000000
 34
0.000000000
 50
90
100
AcDbRotatedDimension
  0
DIMENSION
  5
A42
330
A02
100
AcDbEntity
  8
Dimension008
100
AcDbDimension
  2
*Dimension008
 10
93.731250000
 20
188.701898000
 30
0.000000000
 11
93.731250000
 21
183.701898000
 31
0.000000000
 70
32
  1
1.6875
  3
STANDARD
100
AcDbAlignedDimension
 13
115.162500000
 23
181.200000000
 33
0.000000000
 14
72.300000000
 24
181.200000000
 34
0.000000000
100
AcDbRotatedDimension
  0
ENDSEC
  0
SECTION
  2
OBJECTS
  0
DICTIONARY
  5
F000
330
0
100
AcDbDictionary
  3
ACAD_GROUP
350
F001
  0
DICTIONARY
  5
F001
330
F000
100
AcDbDictionary
  0
ENDSEC
  0
EOF