999
FreeCAD v1.2 44682 (Git)
  0
SECTION
  2
HEADER
  9
$ACADVER
  1
AC1014
  9
$ACADMAINTVER
 70
     9
  9
$DWGCODEPAGE
  3
ANSI_1252
  9
$TEXTSTYLE
  7
STANDARD
  9
$DIMSTYLE
  2
STANDARD
  9
$DIMTXSTY
  7
STANDARD
  9
$CMLSTYLE
  2
STANDARD
  9
$LUNITS
 70
2
  9
$INSUNITS
 70
4
  9
$PEXTMAX
 10
50
 20
50
 30
50
  9
$PEXTMIN
 10
0
 20
0
 30
0
  9
$HANDSEED
  5
FFFF
  0
ENDSEC
  0
SECTION
  2
CLASSES
  0
CLASS
  1
ACDBDICTIONARYWDFLT
  2
AcDbDictionaryWithDefault
  3
ObjectDBX Classes
 90
        0
280
     0
281
     0
  0
CLASS
  1
XRECORD
  2
AcDbXrecord
  3
ObjectDBX Classes
 90
        0
280
     0
281
     0
  0
CLASS
  1
LWPOLYLINE
  2
AcDbPolyline
  3
ObjectDBX Classes
 90
        0
280
     0
281
     1
  0
ENDSEC
  0
SECTION
  2
TABLES
  0
TABLE
  2
VPORT
  5
20
330
0
100
AcDbSymbolTable
 70
     1
  0
VPORT
  5
21
330
20
100
AcDbSymbolTableRecord
100
AcDbViewportTableRecord
  2
*ACTIVE
 70
     0
  0
ENDTAB
  0
TABLE
  2
LTYPE
  5
22
330
0
100
AcDbSymbolTable
 70
     1
  0
LTYPE
  5
23
330
21
100
AcDbSymbolTableRecord
100
AcDbLinetypeTableRecord
  2
BYBLOCK
 70
     0
  3

 72
    65
 73
     0
 40
0.0
  0
LTYPE
  5
24
330
21
100
AcDbSymbolTableRecord
100
AcDbLinetypeTableRecord
  2
BYLAYER
 70
     0
  3

 72
    65
 73
     0
 40
0.0
  0
LTYPE
  5
25
330
21
100
AcDbSymbolTableRecord
100
AcDbLinetypeTableRecord
  2
CONTINUOUS
 70
     0
  3
Solid line
 72
    65
 73
     0
 40
0.0
  0
ENDTAB
  0
TABLE
  2
LAYER
  5
A63
330
0
100
AcDbSymbolTable
 70
8
  0
LAYER
  5
A64
330
A63
100
AcDbSymbolTableRecord
100
AcDbLayerTableRecord
  2
0
 70
   0
 62
   7
  6
CONTINUOUS
  0
LAYER
  5
A65
330
A63
100
AcDbSymbolTableRecord
100
AcDbLayerTableRecord
  2
View
 70
    0
 62
    7
  6
CONTINUOUS
  0
LAYER
  5
A66
330
A63
100
AcDbSymbolTableRecord
100
AcDbLayerTableRecord
  2
Dimension
 70
    0
 62
    7
  6
CONTINUOUS
  0
LAYER
  5
A67
330
A63
100
AcDbSymbolTableRecord
100
AcDbLayerTableRecord
  2
Dimension010
 70
    0
 62
    7
  6
CONTINUOUS
  0
LAYER
  5
A68
330
A63
100
AcDbSymbolTableRecord
100
AcDbLayerTableRecord
  2
Dimension011
 70
    0
 62
    7
  6
CONTINUOUS
  0
LAYER
  5
A69
330
A63
100
AcDbSymbolTableRecord
100
AcDbLayerTableRecord
  2
Dimension012
 70
    0
 62
    7
  6
CONTINUOUS
  0
LAYER
  5
A6A
330
A63
100
AcDbSymbolTableRecord
100
AcDbLayerTableRecord
  2
Dimension013
 70
    0
 62
    7
  6
CONTINUOUS
  0
LAYER
  5
A6B
330
A63
100
AcDbSymbolTableRecord
100
AcDbLayerTableRecord
  2
Dimension014
 70
    0
 62
    7
  6
CONTINUOUS
  0
ENDTAB
  0
TABLE
  2
STYLE
  5
70
330
0
100
AcDbSymbolTable
 70
     2
  0
STYLE
  5
71
330
70
100
AcDbSymbolTableRecord
100
AcDbTextStyleTableRecord
  2
STANDARD
 70
     0
 40
0.0
 41
1.0
 50
0.0
 71
     0
 42
2.5
  3
arial.ttf
  4

  0
STYLE
  5
72
330
70
100
AcDbSymbolTableRecord
100
AcDbTextStyleTableRecord
  2
ANNOTATIVE
 70
     0
 40
0.0
 41
1.0
 50
0.0
 71
     0
 42
2.5
  3
arial.ttf
  4

  0
ENDTAB
  0
TABLE
  2
VIEW
  5
73
330
0
100
AcDbSymbolTable
 70
     0
  0
ENDTAB
  0
TABLE
  2
UCS
  5
74
330
0
100
AcDbSymbolTable
 70
     0
  0
ENDTAB
  0
TABLE
  2
APPID
  5
75
330
0
100
AcDbSymbolTable
 70
     2
  0
APPID
  5
76
330
75
100
AcDbSymbolTableRecord
100
AcDbRegAppTableRecord
  2
ACAD
 70
     0
  0
APPID
  5
77
330
75
100
AcDbSymbolTableRecord
100
AcDbRegAppTableRecord
  2
ACADANNOTATIVE
 70
     0
  0
ENDTAB
  0
TABLE
  2
DIMSTYLE
  5
78
330
0
100
AcDbSymbolTable
 70
     2
  0
DIMSTYLE
105
79
330
78
100
AcDbSymbolTableRecord
100
AcDbDimStyleTableRecord
  2
STANDARD
 70
     0
  3

  4

  5

  6

  7

 40
0.0
 41
2.5
 42
0.625
 43
3.75
 44
1.25
 45
0.0
 46
0.0
 47
0.0
 48
0.0
140
2.5
141
2.5
142
0.0
143
0.03937007874016
144
1.0
145
0.0
146
1.0
147
0.625
 71
     0
 72
     0
 73
     0
 74
     0
 75
     0
 76
     0
 77
     1
 78
     8
170
     0
171
     3
172
     1
173
     0
174
     0
175
     0
176
     0
177
     0
178
     0
270
     2
271
     2
272
     2
273
     2
274
     3
340
71
275
     0
280
     0
281
     0
282
     0
283
     0
284
     8
285
     0
286
     0
287
     3
288
     0
  0
ENDTAB
  0
TABLE
  2
BLOCK_RECORD
  5
A01
330
0
100
AcDbSymbolTable
  70
5
  0
BLOCK_RECORD
  5
A02
330
A01
100
AcDbSymbolTableRecord
100
AcDbBlockTableRecord
  2
*MODEL_SPACE
  0
BLOCK_RECORD
  5
A03
330
A01
100
AcDbSymbolTableRecord
100
AcDbBlockTableRecord
  2
*PAPER_SPACE
  0
BLOCK_RECORD
  5
A28
330
A01
100
AcDbSymbolTableRecord
100
AcDbBlockTableRecord
  2
*Dimension
  0
BLOCK_RECORD
  5
A32
330
A01
100
AcDbSymbolTableRecord
100
AcDbBlockTableRecord
  2
*Dimension010
  0
BLOCK_RECORD
  5
A3C
330
A01
100
AcDbSymbolTableRecord
100
AcDbBlockTableRecord
  2
*Dimension011
  0
BLOCK_RECORD
  5
A46
330
A01
100
AcDbSymbolTableRecord
100
AcDbBlockTableRecord
  2
*Dimension012
  0
BLOCK_RECORD
  5
A50
330
A01
100
AcDbSymbolTableRecord
100
AcDbBlockTableRecord
  2
*Dimension013
  0
BLOCK_RECORD
  5
A5A
330
A01
100
AcDbSymbolTableRecord
100
AcDbBlockTableRecord
  2
*Dimension014
  0
ENDTAB
  0
ENDSEC
  0
SECTION
  2
BLOCKS
  0
BLOCK
  5
A04
330
A02
100
AcDbEntity
  8
0
100
AcDbBlockBegin
  2
*MODEL_SPACE
 70
   0
 10
0
 20
0
 30
0
  3
*MODEL_SPACE
  1
 
  0
ENDBLK
  5
A05
330
A02
100
AcDbEntity
  8
0
100
AcDbBlockEnd
  0
BLOCK
  5
A06
330
A03
100
AcDbEntity
 67
1
  8
0
100
AcDbBlockBegin
  2
*PAPER_SPACE
 70
   0
 10
0
 20
0
 30
0
  3
*PAPER_SPACE
  1
 
  0
ENDBLK
  5
A07
330
A03
100
AcDbEntity
 67
    1
  8
0
100
AcDbBlockEnd
  0
BLOCK
  5
A29
330
A28
100
AcDbEntity
  8
Dimension
100
AcDbBlockBegin
  2
*Dimension
 70
   1
 10
0
 20
0
 30
0
  3
*Dimension
  1
 
  0
LINE
  5
A2A
330
A28
100
AcDbEntity
  8
Dimension
100
AcDbLine
 10
-54.7
 20
-98.2
 30
0
 11
-49.7
 21
-98.2
 31
0
  0
LINE
  5
A2B
330
A28
100
AcDbEntity
  8
Dimension
100
AcDbLine
 10
-54.7
 20
308.2
 30
0
 11
-49.7
 21
308.2
 31
0
  0
LINE
  5
A2C
330
A28
100
AcDbEntity
  8
Dimension
100
AcDbLine
 10
-49.7
 20
308.2
 30
0
 11
-49.7
 21
-98.2
 31
0
  0
TEXT
  5
A2D
330
A28
100
AcDbEntity
  8
Dimension
100
AcDbText
 10
-54.7
 20
105
 30
0
 40
3.5
  1
16
  7
STANDARD
 72
1
 11
-49.7
 21
105
 31
0
100
AcDbText
  0
SOLID
  5
A2E
330
A28
100
AcDbEntity
  8
0
 62
     0
100
AcDbTrace
 10
-49.2833
 20
313.2
 30
0
 11
-50.1167
 21
313.2
 31
0
 12
-49.7
 22
308.2
 32
0
 13
-49.7
 23
308.2
 33
0
  0
SOLID
  5
A2F
330
A28
100
AcDbEntity
  8
0
 62
     0
100
AcDbTrace
 10
-49.2833
 20
-103.2
 30
0
 11
-50.1167
 21
-103.2
 31
0
 12
-49.7
 22
-98.2
 32
0
 13
-49.7
 23
-98.2
 33
0
  0
ENDBLK
  5
A30
330
A28
100
AcDbEntity
  8
Dimension
100
AcDbBlockEnd
  0
BLOCK
  5
A33
330
A32
100
AcDbEntity
  8
Dimension010
100
AcDbBlockBegin
  2
*Dimension010
 70
   1
 10
0
 20
0
 30
0
  3
*Dimension010
  1
 
  0
LINE
  5
A34
330
A32
100
AcDbEntity
  8
Dimension010
100
AcDbLine
 10
-54.7
 20
308.2
 30
0
 11
-54.7
 21
315.702
 31
0
  0
LINE
  5
A35
330
A32
100
AcDbEntity
  8
Dimension010
100
AcDbLine
 10
351.7
 20
308.2
 30
0
 11
351.7
 21
315.702
 31
0
  0
LINE
  5
A36
330
A32
100
AcDbEntity
  8
Dimension010
100
AcDbLine
 10
351.7
 20
315.702
 30
0
 11
-54.7
 21
315.702
 31
0
  0
TEXT
  5
A37
330
A32
100
AcDbEntity
  8
Dimension010
100
AcDbText
 10
148.5
 20
310.702
 30
0
 40
3.5
  1
16
  7
STANDARD
 72
1
 11
148.5
 21
315.702
 31
0
100
AcDbText
  0
SOLID
  5
A38
330
A32
100
AcDbEntity
  8
0
 62
     0
100
AcDbTrace
 10
356.7
 20
316.119
 30
0
 11
356.7
 21
315.285
 31
0
 12
351.7
 22
315.702
 32
0
 13
351.7
 23
315.702
 33
0
  0
SOLID
  5
A39
330
A32
100
AcDbEntity
  8
0
 62
     0
100
AcDbTrace
 10
-59.7
 20
316.119
 30
0
 11
-59.7
 21
315.285
 31
0
 12
-54.7
 22
315.702
 32
0
 13
-54.7
 23
315.702
 33
0
  0
ENDBLK
  5
A3A
330
A32
100
AcDbEntity
  8
Dimension010
100
AcDbBlockEnd
  0
BLOCK
  5
A3D
330
A3C
100
AcDbEntity
  8
Dimension011
100
AcDbBlockBegin
  2
*Dimension011
 70
   1
 10
0
 20
0
 30
0
  3
*Dimension011
  1
 
  0
LINE
  5
A3E
330
A3C
100
AcDbEntity
  8
Dimension011
100
AcDbLine
 10
208.698
 20
105
 30
0
 11
198.971
 21
105
 31
0
  0
LINE
  5
A3F
330
A3C
100
AcDbEntity
  8
Dimension011
100
AcDbLine
 10
208.698
 20
282.8
 30
0
 11
198.971
 21
282.8
 31
0
  0
LINE
  5
A40
330
A3C
100
AcDbEntity
  8
Dimension011
100
AcDbLine
 10
198.971
 20
282.8
 30
0
 11
198.971
 21
105
 31
0
  0
TEXT
  5
A41
330
A3C
100
AcDbEntity
  8
Dimension011
100
AcDbText
 10
193.971
 20
223.549
 30
0
 40
3.5
  1
7
  7
STANDARD
 72
1
 11
198.971
 21
223.549
 31
0
100
AcDbText
  0
SOLID
  5
A42
330
A3C
100
AcDbEntity
  8
0
 62
     0
100
AcDbTrace
 10
198.554
 20
287.8
 30
0
 11
199.387
 21
287.8
 31
0
 12
198.971
 22
282.8
 32
0
 13
198.971
 23
282.8
 33
0
  0
SOLID
  5
A43
330
A3C
100
AcDbEntity
  8
0
 62
     0
100
AcDbTrace
 10
198.554
 20
100
 30
0
 11
199.387
 21
100
 31
0
 12
198.971
 22
105
 32
0
 13
198.971
 23
105
 33
0
  0
ENDBLK
  5
A44
330
A3C
100
AcDbEntity
  8
Dimension011
100
AcDbBlockEnd
  0
BLOCK
  5
A47
330
A46
100
AcDbEntity
  8
Dimension012
100
AcDbBlockBegin
  2
*Dimension012
 70
   1
 10
0
 20
0
 30
0
  3
*Dimension012
  1
 
  0
LINE
  5
A48
330
A46
100
AcDbEntity
  8
Dimension012
100
AcDbLine
 10
326.3
 20
-15.65
 30
0
 11
326.3
 21
-27.6302
 31
0
  0
LINE
  5
A49
330
A46
100
AcDbEntity
  8
Dimension012
100
AcDbLine
 10
-29.3
 20
-15.65
 30
0
 11
-29.3
 21
-27.6302
 31
0
  0
LINE
  5
A4A
330
A46
100
AcDbEntity
  8
Dimension012
100
AcDbLine
 10
-29.3
 20
-27.6302
 30
0
 11
326.3
 21
-27.6302
 31
0
  0
TEXT
  5
A4B
330
A46
100
AcDbEntity
  8
Dimension012
100
AcDbText
 10
179.319
 20
-22.6302
 30
0
 40
3.5
  1
14
  7
STANDARD
 72
1
 11
179.319
 21
-27.6302
 31
0
100
AcDbText
  0
SOLID
  5
A4C
330
A46
100
AcDbEntity
  8
0
 62
     0
100
AcDbTrace
 10
-34.3
 20
-28.0469
 30
0
 11
-34.3
 21
-27.2136
 31
0
 12
-29.3
 22
-27.6302
 32
0
 13
-29.3
 23
-27.6302
 33
0
  0
SOLID
  5
A4D
330
A46
100
AcDbEntity
  8
0
 62
     0
100
AcDbTrace
 10
331.3
 20
-28.0469
 30
0
 11
331.3
 21
-27.2136
 31
0
 12
326.3
 22
-27.6302
 32
0
 13
326.3
 23
-27.6302
 33
0
  0
ENDBLK
  5
A4E
330
A46
100
AcDbEntity
  8
Dimension012
100
AcDbBlockEnd
  0
BLOCK
  5
A51
330
A50
100
AcDbEntity
  8
Dimension013
100
AcDbBlockBegin
  2
*Dimension013
 70
   1
 10
0
 20
0
 30
0
  3
*Dimension013
  1
 
  0
LINE
  5
A52
330
A50
100
AcDbEntity
  8
Dimension013
100
AcDbLine
 10
234.098
 20
282.8
 30
0
 11
234.098
 21
290.302
 31
0
  0
LINE
  5
A53
330
A50
100
AcDbEntity
  8
Dimension013
100
AcDbLine
 10
326.3
 20
282.8
 30
0
 11
326.3
 21
290.302
 31
0
  0
LINE
  5
A54
330
A50
100
AcDbEntity
  8
Dimension013
100
AcDbLine
 10
326.3
 20
290.302
 30
0
 11
234.098
 21
290.302
 31
0
  0
TEXT
  5
A55
330
A50
100
AcDbEntity
  8
Dimension013
100
AcDbText
 10
280.199
 20
285.302
 30
0
 40
3.5
  1
3.625
  7
STANDARD
 72
1
 11
280.199
 21
290.302
 31
0
100
AcDbText
  0
SOLID
  5
A56
330
A50
100
AcDbEntity
  8
0
 62
     0
100
AcDbTrace
 10
331.3
 20
290.719
 30
0
 11
331.3
 21
289.885
 31
0
 12
326.3
 22
290.302
 32
0
 13
326.3
 23
290.302
 33
0
  0
SOLID
  5
A57
330
A50
100
AcDbEntity
  8
0
 62
     0
100
AcDbTrace
 10
229.098
 20
290.719
 30
0
 11
229.098
 21
289.885
 31
0
 12
234.098
 22
290.302
 32
0
 13
234.098
 23
290.302
 33
0
  0
ENDBLK
  5
A58
330
A50
100
AcDbEntity
  8
Dimension013
100
AcDbBlockEnd
  0
BLOCK
  5
A5B
330
A5A
100
AcDbEntity
  8
Dimension014
100
AcDbBlockBegin
  2
*Dimension014
 70
   1
 10
0
 20
0
 30
0
  3
*Dimension014
  1
 
  0
LINE
  5
A5C
330
A5A
100
AcDbEntity
  8
Dimension014
100
AcDbLine
 10
326.3
 20
79.6
 30
0
 11
331.3
 21
79.6
 31
0
  0
LINE
  5
A5D
330
A5A
100
AcDbEntity
  8
Dimension014
100
AcDbLine
 10
326.3
 20
105
 30
0
 11
331.3
 21
105
 31
0
  0
LINE
  5
A5E
330
A5A
100
AcDbEntity
  8
Dimension014
100
AcDbLine
 10
331.3
 20
105
 30
0
 11
331.3
 21
79.6
 31
0
  0
TEXT
  5
A5F
330
A5A
100
AcDbEntity
  8
Dimension014
100
AcDbText
 10
326.3
 20
92.3
 30
0
 40
3.5
  1
1
  7
STANDARD
 72
1
 11
331.3
 21
92.3
 31
0
100
AcDbText
  0
SOLID
  5
A60
330
A5A
100
AcDbEntity
  8
0
 62
     0
100
AcDbTrace
 10
331.717
 20
110
 30
0
 11
330.883
 21
110
 31
0
 12
331.3
 22
105
 32
0
 13
331.3
 23
105
 33
0
  0
SOLID
  5
A61
330
A5A
100
AcDbEntity
  8
0
 62
     0
100
AcDbTrace
 10
331.717
 20
74.6
 30
0
 11
330.883
 21
74.6
 31
0
 12
331.3
 22
79.6
 32
0
 13
331.3
 23
79.6
 33
0
  0
ENDBLK
  5
A62
330
A5A
100
AcDbEntity
  8
Dimension014
100
AcDbBlockEnd
  0
ENDSEC
  0
SECTION
  2
ENTITIES
  0
LINE
  5
A08
330
A02
100
AcDbEntity
  8
View
100
AcDbLine
 10
208.698000000
 20
282.800000000
 30
0.000000000
 11
208.698000000
 21
105.000000000
 31
0.000000000
  0
LINE
  5
A09
330
A02
100
AcDbEntity
  8
View
100
AcDbLine
 10
234.098000000
 20
282.800000000
 30
0.000000000
 11
234.098000000
 21
105.000000000
 31
0.000000000
  0
LINE
  5
A0A
330
A02
100
AcDbEntity
  8
View
100
AcDbLine
 10
234.098000000
 20
282.800000000
 30
0.000000000
 11
208.698000000
 21
282.800000000
 31
0.000000000
  0
LINE
  5
A0B
330
A02
100
AcDbEntity
  8
View
100
AcDbLine
 10
234.098000000
 20
105.000000000
 30
0.000000000
 11
208.698000000
 21
105.000000000
 31
0.000000000
  0
LINE
  5
A0C
330
A02
100
AcDbEntity
  8
View
100
AcDbLine
 10
-29.300000000
 20
9.750000000
 30
0.000000000
 11
326.300000000
 21
9.750000000
 31
0.000000000
  0
LINE
  5
A0D
330
A02
100
AcDbEntity
  8
View
100
AcDbLine
 10
-29.300000000
 20
6.575000000
 30
0.000000000
 11
326.300000000
 21
6.575000000
 31
0.000000000
  0
LINE
  5
A0E
330
A02
100
AcDbEntity
  8
View
100
AcDbLine
 10
-29.300000000
 20
6.575000000
 30
0.000000000
 11
-29.300000000
 21
9.750000000
 31
0.000000000
  0
LINE
  5
A0F
330
A02
100
AcDbEntity
  8
View
100
AcDbLine
 10
326.300000000
 20
6.575000000
 30
0.000000000
 11
326.300000000
 21
9.750000000
 31
0.000000000
  0
LINE
  5
A10
330
A02
100
AcDbEntity
  8
View
100
AcDbLine
 10
-29.300000000
 20
-15.650000000
 30
0.000000000
 11
-29.300000000
 21
6.575000000
 31
0.000000000
  0
LINE
  5
A11
330
A02
100
AcDbEntity
  8
View
100
AcDbLine
 10
326.300000000
 20
-15.650000000
 30
0.000000000
 11
326.300000000
 21
6.575000000
 31
0.000000000
  0
LINE
  5
A12
330
A02
100
AcDbEntity
  8
View
100
AcDbLine
 10
-29.300000000
 20
-15.650000000
 30
0.000000000
 11
326.300000000
 21
-15.650000000
 31
0.000000000
  0
LINE
  5
A13
330
A02
100
AcDbEntity
  8
View
100
AcDbLine
 10
351.700000000
 20
308.200000000
 30
0.000000000
 11
-54.700000000
 21
308.200000000
 31
0.000000000
  0
LINE
  5
A14
330
A02
100
AcDbEntity
  8
View
100
AcDbLine
 10
326.300000000
 20
282.800000000
 30
0.000000000
 11
351.700000000
 21
308.200000000
 31
0.000000000
  0
LINE
  5
A15
330
A02
100
AcDbEntity
  8
View
100
AcDbLine
 10
-29.300000000
 20
282.800000000
 30
0.000000000
 11
-54.700000000
 21
308.200000000
 31
0.000000000
  0
LINE
  5
A16
330
A02
100
AcDbEntity
  8
View
100
AcDbLine
 10
326.300000000
 20
282.800000000
 30
0.000000000
 11
-29.300000000
 21
282.800000000
 31
0.000000000
  0
LINE
  5
A17
330
A02
100
AcDbEntity
  8
View
100
AcDbLine
 10
-54.700000000
 20
-98.200000000
 30
0.000000000
 11
351.700000000
 21
-98.200000000
 31
0.000000000
  0
LINE
  5
A18
330
A02
100
AcDbEntity
  8
View
100
AcDbLine
 10
-29.300000000
 20
-72.800000000
 30
0.000000000
 11
-54.700000000
 21
-98.200000000
 31
0.000000000
  0
LINE
  5
A19
330
A02
100
AcDbEntity
  8
View
100
AcDbLine
 10
326.300000000
 20
-72.800000000
 30
0.000000000
 11
351.700000000
 21
-98.200000000
 31
0.000000000
  0
LINE
  5
A1A
330
A02
100
AcDbEntity
  8
View
100
AcDbLine
 10
-29.300000000
 20
-72.800000000
 30
0.000000000
 11
326.300000000
 21
-72.800000000
 31
0.000000000
  0
LINE
  5
A1B
330
A02
100
AcDbEntity
  8
View
100
AcDbLine
 10
-54.700000000
 20
308.200000000
 30
0.000000000
 11
-54.700000000
 21
-98.200000000
 31
0.000000000
  0
LINE
  5
A1C
330
A02
100
AcDbEntity
  8
View
100
AcDbLine
 10
-29.300000000
 20
282.800000000
 30
0.000000000
 11
-54.700000000
 21
308.200000000
 31
0.000000000
  0
LINE
  5
A1D
330
A02
100
AcDbEntity
  8
View
100
AcDbLine
 10
-29.300000000
 20
-72.800000000
 30
0.000000000
 11
-54.700000000
 21
-98.200000000
 31
0.000000000
  0
LINE
  5
A1E
330
A02
100
AcDbEntity
  8
View
100
AcDbLine
 10
-29.300000000
 20
282.800000000
 30
0.000000000
 11
-29.300000000
 21
-72.800000000
 31
0.000000000
  0
LINE
  5
A1F
330
A02
100
AcDbEntity
  8
View
100
AcDbLine
 10
351.700000000
 20
-98.200000000
 30
0.000000000
 11
351.700000000
 21
308.200000000
 31
0.000000000
  0
LINE
  5
A20
330
A02
100
AcDbEntity
  8
View
100
AcDbLine
 10
326.300000000
 20
-72.800000000
 30
0.000000000
 11
351.700000000
 21
-98.200000000
 31
0.000000000
  0
LINE
  5
A21
330
A02
100
AcDbEntity
  8
View
100
AcDbLine
 10
326.300000000
 20
282.800000000
 30
0.000000000
 11
351.700000000
 21
308.200000000
 31
0.000000000
  0
LINE
  5
A22
330
A02
100
AcDbEntity
  8
View
100
AcDbLine
 10
326.300000000
 20
-72.800000000
 30
0.000000000
 11
326.300000000
 21
282.800000000
 31
0.000000000
  0
LINE
  5
A23
330
A02
100
AcDbEntity
  8
View
100
AcDbLine
 10
326.300000000
 20
105.000000000
 30
0.000000000
 11
-29.300000000
 21
105.000000000
 31
0.000000000
  0
LINE
  5
A24
330
A02
100
AcDbEntity
  8
View
100
AcDbLine
 10
326.300000000
 20
79.600000000
 30
0.000000000
 11
326.300000000
 21
105.000000000
 31
0.000000000
  0
LINE
  5
A25
330
A02
100
AcDbEntity
  8
View
100
AcDbLine
 10
-29.300000000
 20
79.600000000
 30
0.000000000
 11
-29.300000000
 21
105.000000000
 31
0.000000000
  0
LINE
  5
A26
330
A02
100
AcDbEntity
  8
View
100
AcDbLine
 10
326.300000000
 20
79.600000000
 30
0.000000000
 11
-29.300000000
 21
79.600000000
 31
0.000000000
  0
DIMENSION
  5
A27
330
A02
100
AcDbEntity
  8
Dimension
100
AcDbDimension
  2
*Dimension
 10
-49.700000000
 20
105.000000000
 30
0.000000000
 11
-54.700000000
 21
105.000000000
 31
0.000000000
 70
32
  1
16
  3
STANDARD
100
AcDbAlignedDimension
 13
-54.700000000
 23
308.200000000
 33
0.000000000
 14
-54.700000000
 24
-98.200000000
 34
0.000000000
 50
90
100
AcDbRotatedDimension
  0
DIMENSION
  5
A31
330
A02
100
AcDbEntity
  8
Dimension010
100
AcDbDimension
  2
*Dimension010
 10
148.500000000
 20
315.701904000
 30
0.000000000
 11
148.500000000
 21
310.701904000
 31
0.000000000
 70
32
  1
16
  3
STANDARD
100
AcDbAlignedDimension
 13
351.700000000
 23
308.200000000
 33
0.000000000
 14
-54.700000000
 24
308.200000000
 34
0.000000000
100
AcDbRotatedDimension
  0
DIMENSION
  5
A3B
330
A02
100
AcDbEntity
  8
Dimension011
100
AcDbDimension
  2
*Dimension011
 10
198.970831000
 20
223.548969000
 30
0.000000000
 11
193.970831000
 21
223.548969000
 31
0.000000000
 70
32
  1
7
  3
STANDARD
100
AcDbAlignedDimension
 13
208.698000000
 23
282.800000000
 33
0.000000000
 14
208.698000000
 24
105.000000000
 34
0.000000000
 50
90
100
AcDbRotatedDimension
  0
DIMENSION
  5
A45
330
A02
100
AcDbEntity
  8
Dimension012
100
AcDbDimension
  2
*Dimension012
 10
179.318716000
 20
-27.630241000
 30
0.000000000
 11
179.318716000
 21
-22.630241000
 31
0.000000000
 70
32
  1
14
  3
STANDARD
100
AcDbAlignedDimension
 13
-29.300000000
 23
-15.650000000
 33
0.000000000
 14
326.300000000
 24
-15.650000000
 34
0.000000000
100
AcDbRotatedDimension
  0
DIMENSION
  5
A4F
330
A02
100
AcDbEntity
  8
Dimension013
100
AcDbDimension
  2
*Dimension013
 10
280.199000000
 20
290.301904000
 30
0.000000000
 11
280.199000000
 21
285.301904000
 31
0.000000000
 70
32
  1
3.625
  3
STANDARD
100
AcDbAlignedDimension
 13
326.300000000
 23
282.800000000
 33
0.000000000
 14
234.098000000
 24
282.800000000
 34
0.000000000
100
AcDbRotatedDimension
  0
DIMENSION
  5
A59
330
A02
100
AcDbEntity
  8
Dimension014
100
AcDbDimension
  2
*Dimension014
 10
331.300000000
 20
92.300000000
 30
0.000000000
 11
326.300000000
 21
92.300000000
 31
0.000000000
 70
32
  1
1
  3
STANDARD
100
AcDbAlignedDimension
 13
326.300000000
 23
105.000000000
 33
0.000000000
 14
326.300000000
 24
79.600000000
 34
0.000000000
 50
90
100
AcDbRotatedDimension
  0
ENDSEC
  0
SECTION
  2
OBJECTS
  0
DICTIONARY
  5
F000
330
0
100
AcDbDictionary
  3
ACAD_GROUP
350
F001
  0
DICTIONARY
  5
F001
330
F000
100
AcDbDictionary
  0
ENDSEC
  0
EOF