999
FreeCAD v1.2 44682 (Git)
  0
SECTION
  2
HEADER
  9
$ACADVER
  1
AC1014
  9
$ACADMAINTVER
 70
     9
  9
$DWGCODEPAGE
  3
ANSI_1252
  9
$TEXTSTYLE
  7
STANDARD
  9
$DIMSTYLE
  2
STANDARD
  9
$DIMTXSTY
  7
STANDARD
  9
$CMLSTYLE
  2
STANDARD
  9
$LUNITS
 70
2
  9
$INSUNITS
 70
4
  9
$PEXTMAX
 10
50
 20
50
 30
50
  9
$PEXTMIN
 10
0
 20
0
 30
0
  9
$HANDSEED
  5
FFFF
  0
ENDSEC
  0
SECTION
  2
CLASSES
  0
CLASS
  1
ACDBDICTIONARYWDFLT
  2
AcDbDictionaryWithDefault
  3
ObjectDBX Classes
 90
        0
280
     0
281
     0
  0
CLASS
  1
XRECORD
  2
AcDbXrecord
  3
ObjectDBX Classes
 90
        0
280
     0
281
     0
  0
CLASS
  1
LWPOLYLINE
  2
AcDbPolyline
  3
ObjectDBX Classes
 90
        0
280
     0
281
     1
  0
ENDSEC
  0
SECTION
  2
TABLES
  0
TABLE
  2
VPORT
  5
20
330
0
100
AcDbSymbolTable
 70
     1
  0
VPORT
  5
21
330
20
100
AcDbSymbolTableRecord
100
AcDbViewportTableRecord
  2
*ACTIVE
 70
     0
  0
ENDTAB
  0
TABLE
  2
LTYPE
  5
22
330
0
100
AcDbSymbolTable
 70
     1
  0
LTYPE
  5
23
330
21
100
AcDbSymbolTableRecord
100
AcDbLinetypeTableRecord
  2
BYBLOCK
 70
     0
  3

 72
    65
 73
     0
 40
0.0
  0
LTYPE
  5
24
330
21
100
AcDbSymbolTableRecord
100
AcDbLinetypeTableRecord
  2
BYLAYER
 70
     0
  3

 72
    65
 73
     0
 40
0.0
  0
LTYPE
  5
25
330
21
100
AcDbSymbolTableRecord
100
AcDbLinetypeTableRecord
  2
CONTINUOUS
 70
     0
  3
Solid line
 72
    65
 73
     0
 40
0.0
  0
ENDTAB
  0
TABLE
  2
LAYER
  5
A6D
330
0
100
AcDbSymbolTable
 70
11
  0
LAYER
  5
A6E
330
A6D
100
AcDbSymbolTableRecord
100
AcDbLayerTableRecord
  2
0
 70
   0
 62
   7
  6
CONTINUOUS
  0
LAYER
  5
A6F
330
A6D
100
AcDbSymbolTableRecord
100
AcDbLayerTableRecord
  2
View
 70
    0
 62
    7
  6
CONTINUOUS
  0
LAYER
  5
A70
330
A6D
100
AcDbSymbolTableRecord
100
AcDbLayerTableRecord
  2
Dimension
 70
    0
 62
    7
  6
CONTINUOUS
  0
LAYER
  5
A71
330
A6D
100
AcDbSymbolTableRecord
100
AcDbLayerTableRecord
  2
Dimension001
 70
    0
 62
    7
  6
CONTINUOUS
  0
LAYER
  5
A72
330
A6D
100
AcDbSymbolTableRecord
100
AcDbLayerTableRecord
  2
Dimension002
 70
    0
 62
    7
  6
CONTINUOUS
  0
LAYER
  5
A73
330
A6D
100
AcDbSymbolTableRecord
100
AcDbLayerTableRecord
  2
Dimension003
 70
    0
 62
    7
  6
CONTINUOUS
  0
LAYER
  5
A74
330
A6D
100
AcDbSymbolTableRecord
100
AcDbLayerTableRecord
  2
Dimension004
 70
    0
 62
    7
  6
CONTINUOUS
  0
LAYER
  5
A75
330
A6D
100
AcDbSymbolTableRecord
100
AcDbLayerTableRecord
  2
Dimension005
 70
    0
 62
    7
  6
CONTINUOUS
  0
LAYER
  5
A76
330
A6D
100
AcDbSymbolTableRecord
100
AcDbLayerTableRecord
  2
Dimension006
 70
    0
 62
    7
  6
CONTINUOUS
  0
LAYER
  5
A77
330
A6D
100
AcDbSymbolTableRecord
100
AcDbLayerTableRecord
  2
Dimension007
 70
    0
 62
    7
  6
CONTINUOUS
  0
LAYER
  5
A78
330
A6D
100
AcDbSymbolTableRecord
100
AcDbLayerTableRecord
  2
Dimension008
 70
    0
 62
    7
  6
CONTINUOUS
  0
ENDTAB
  0
TABLE
  2
STYLE
  5
70
330
0
100
AcDbSymbolTable
 70
     2
  0
STYLE
  5
71
330
70
100
AcDbSymbolTableRecord
100
AcDbTextStyleTableRecord
  2
STANDARD
 70
     0
 40
0.0
 41
1.0
 50
0.0
 71
     0
 42
2.5
  3
arial.ttf
  4

  0
STYLE
  5
72
330
70
100
AcDbSymbolTableRecord
100
AcDbTextStyleTableRecord
  2
ANNOTATIVE
 70
     0
 40
0.0
 41
1.0
 50
0.0
 71
     0
 42
2.5
  3
arial.ttf
  4

  0
ENDTAB
  0
TABLE
  2
VIEW
  5
73
330
0
100
AcDbSymbolTable
 70
     0
  0
ENDTAB
  0
TABLE
  2
UCS
  5
74
330
0
100
AcDbSymbolTable
 70
     0
  0
ENDTAB
  0
TABLE
  2
APPID
  5
75
330
0
100
AcDbSymbolTable
 70
     2
  0
APPID
  5
76
330
75
100
AcDbSymbolTableRecord
100
AcDbRegAppTableRecord
  2
ACAD
 70
     0
  0
APPID
  5
77
330
75
100
AcDbSymbolTableRecord
100
AcDbRegAppTableRecord
  2
ACADANNOTATIVE
 70
     0
  0
ENDTAB
  0
TABLE
  2
DIMSTYLE
  5
78
330
0
100
AcDbSymbolTable
 70
     2
  0
DIMSTYLE
105
79
330
78
100
AcDbSymbolTableRecord
100
AcDbDimStyleTableRecord
  2
STANDARD
 70
     0
  3

  4

  5

  6

  7

 40
0.0
 41
2.5
 42
0.625
 43
3.75
 44
1.25
 45
0.0
 46
0.0
 47
0.0
 48
0.0
140
2.5
141
2.5
142
0.0
143
0.03937007874016
144
1.0
145
0.0
146
1.0
147
0.625
 71
     0
 72
     0
 73
     0
 74
     0
 75
     0
 76
     0
 77
     1
 78
     8
170
     0
171
     3
172
     1
173
     0
174
     0
175
     0
176
     0
177
     0
178
     0
270
     2
271
     2
272
     2
273
     2
274
     3
340
71
275
     0
280
     0
281
     0
282
     0
283
     0
284
     8
285
     0
286
     0
287
     3
288
     0
  0
ENDTAB
  0
TABLE
  2
BLOCK_RECORD
  5
A01
330
0
100
AcDbSymbolTable
  70
5
  0
BLOCK_RECORD
  5
A02
330
A01
100
AcDbSymbolTableRecord
100
AcDbBlockTableRecord
  2
*MODEL_SPACE
  0
BLOCK_RECORD
  5
A03
330
A01
100
AcDbSymbolTableRecord
100
AcDbBlockTableRecord
  2
*PAPER_SPACE
  0
BLOCK_RECORD
  5
A14
330
A01
100
AcDbSymbolTableRecord
100
AcDbBlockTableRecord
  2
*Dimension
  0
BLOCK_RECORD
  5
A1E
330
A01
100
AcDbSymbolTableRecord
100
AcDbBlockTableRecord
  2
*Dimension001
  0
BLOCK_RECORD
  5
A28
330
A01
100
AcDbSymbolTableRecord
100
AcDbBlockTableRecord
  2
*Dimension002
  0
BLOCK_RECORD
  5
A32
330
A01
100
AcDbSymbolTableRecord
100
AcDbBlockTableRecord
  2
*Dimension003
  0
BLOCK_RECORD
  5
A3C
330
A01
100
AcDbSymbolTableRecord
100
AcDbBlockTableRecord
  2
*Dimension004
  0
BLOCK_RECORD
  5
A46
330
A01
100
AcDbSymbolTableRecord
100
AcDbBlockTableRecord
  2
*Dimension005
  0
BLOCK_RECORD
  5
A50
330
A01
100
AcDbSymbolTableRecord
100
AcDbBlockTableRecord
  2
*Dimension006
  0
BLOCK_RECORD
  5
A5A
330
A01
100
AcDbSymbolTableRecord
100
AcDbBlockTableRecord
  2
*Dimension007
  0
BLOCK_RECORD
  5
A64
330
A01
100
AcDbSymbolTableRecord
100
AcDbBlockTableRecord
  2
*Dimension008
  0
ENDTAB
  0
ENDSEC
  0
SECTION
  2
BLOCKS
  0
BLOCK
  5
A04
330
A02
100
AcDbEntity
  8
0
100
AcDbBlockBegin
  2
*MODEL_SPACE
 70
   0
 10
0
 20
0
 30
0
  3
*MODEL_SPACE
  1
 
  0
ENDBLK
  5
A05
330
A02
100
AcDbEntity
  8
0
100
AcDbBlockEnd
  0
BLOCK
  5
A06
330
A03
100
AcDbEntity
 67
1
  8
0
100
AcDbBlockBegin
  2
*PAPER_SPACE
 70
   0
 10
0
 20
0
 30
0
  3
*PAPER_SPACE
  1
 
  0
ENDBLK
  5
A07
330
A03
100
AcDbEntity
 67
    1
  8
0
100
AcDbBlockEnd
  0
BLOCK
  5
A15
330
A14
100
AcDbEntity
  8
Dimension
100
AcDbBlockBegin
  2
*Dimension
 70
   1
 10
0
 20
0
 30
0
  3
*Dimension
  1
 
  0
LINE
  5
A16
330
A14
100
AcDbEntity
  8
Dimension
100
AcDbLine
 10
21.5
 20
28.8
 30
0
 11
14.71
 21
28.8
 31
0
  0
LINE
  5
A17
330
A14
100
AcDbEntity
  8
Dimension
100
AcDbLine
 10
21.5
 20
181.2
 30
0
 11
14.71
 21
181.2
 31
0
  0
LINE
  5
A18
330
A14
100
AcDbEntity
  8
Dimension
100
AcDbLine
 10
14.71
 20
181.2
 30
0
 11
14.71
 21
28.8
 31
0
  0
TEXT
  5
A19
330
A14
100
AcDbEntity
  8
Dimension
100
AcDbText
 10
9.71001
 20
132.248
 30
0
 40
3.5
  1
6
  7
STANDARD
 72
1
 11
14.71
 21
132.248
 31
0
100
AcDbText
  0
SOLID
  5
A1A
330
A14
100
AcDbEntity
  8
0
 62
     0
100
AcDbTrace
 10
14.2933
 20
186.2
 30
0
 11
15.1267
 21
186.2
 31
0
 12
14.71
 22
181.2
 32
0
 13
14.71
 23
181.2
 33
0
  0
SOLID
  5
A1B
330
A14
100
AcDbEntity
  8
0
 62
     0
100
AcDbTrace
 10
14.2933
 20
23.8
 30
0
 11
15.1267
 21
23.8
 31
0
 12
14.71
 22
28.8
 32
0
 13
14.71
 23
28.8
 33
0
  0
ENDBLK
  5
A1C
330
A14
100
AcDbEntity
  8
Dimension
100
AcDbBlockEnd
  0
BLOCK
  5
A1F
330
A1E
100
AcDbEntity
  8
Dimension001
100
AcDbBlockBegin
  2
*Dimension001
 70
   1
 10
0
 20
0
 30
0
  3
*Dimension001
  1
 
  0
LINE
  5
A20
330
A1E
100
AcDbEntity
  8
Dimension001
100
AcDbLine
 10
21.5
 20
181.2
 30
0
 11
21.5
 21
200.152
 31
0
  0
LINE
  5
A21
330
A1E
100
AcDbEntity
  8
Dimension001
100
AcDbLine
 10
224.7
 20
181.2
 30
0
 11
224.7
 21
200.152
 31
0
  0
LINE
  5
A22
330
A1E
100
AcDbEntity
  8
Dimension001
100
AcDbLine
 10
224.7
 20
200.152
 30
0
 11
21.5
 21
200.152
 31
0
  0
TEXT
  5
A23
330
A1E
100
AcDbEntity
  8
Dimension001
100
AcDbText
 10
51.8768
 20
195.152
 30
0
 40
3.5
  1
8
  7
STANDARD
 72
1
 11
51.8768
 21
200.152
 31
0
100
AcDbText
  0
SOLID
  5
A24
330
A1E
100
AcDbEntity
  8
0
 62
     0
100
AcDbTrace
 10
229.7
 20
200.569
 30
0
 11
229.7
 21
199.736
 31
0
 12
224.7
 22
200.152
 32
0
 13
224.7
 23
200.152
 33
0
  0
SOLID
  5
A25
330
A1E
100
AcDbEntity
  8
0
 62
     0
100
AcDbTrace
 10
16.5
 20
200.569
 30
0
 11
16.5
 21
199.736
 31
0
 12
21.5
 22
200.152
 32
0
 13
21.5
 23
200.152
 33
0
  0
ENDBLK
  5
A26
330
A1E
100
AcDbEntity
  8
Dimension001
100
AcDbBlockEnd
  0
BLOCK
  5
A29
330
A28
100
AcDbEntity
  8
Dimension002
100
AcDbBlockBegin
  2
*Dimension002
 70
   1
 10
0
 20
0
 30
0
  3
*Dimension002
  1
 
  0
LINE
  5
A2A
330
A28
100
AcDbEntity
  8
Dimension002
100
AcDbLine
 10
21.5
 20
79.6
 30
0
 11
21.5
 21
25.3117
 31
0
  0
LINE
  5
A2B
330
A28
100
AcDbEntity
  8
Dimension002
100
AcDbLine
 10
275.5
 20
79.6
 30
0
 11
275.5
 21
25.3117
 31
0
  0
LINE
  5
A2C
330
A28
100
AcDbEntity
  8
Dimension002
100
AcDbLine
 10
275.5
 20
25.3117
 30
0
 11
21.5
 21
25.3117
 31
0
  0
TEXT
  5
A2D
330
A28
100
AcDbEntity
  8
Dimension002
100
AcDbText
 10
140.639
 20
20.3117
 30
0
 40
3.5
  1
10
  7
STANDARD
 72
1
 11
140.639
 21
25.3117
 31
0
100
AcDbText
  0
SOLID
  5
A2E
330
A28
100
AcDbEntity
  8
0
 62
     0
100
AcDbTrace
 10
270.5
 20
25.7284
 30
0
 11
270.5
 21
24.895
 31
0
 12
275.5
 22
25.3117
 32
0
 13
275.5
 23
25.3117
 33
0
  0
SOLID
  5
A2F
330
A28
100
AcDbEntity
  8
0
 62
     0
100
AcDbTrace
 10
26.5
 20
25.7284
 30
0
 11
26.5
 21
24.895
 31
0
 12
21.5
 22
25.3117
 32
0
 13
21.5
 23
25.3117
 33
0
  0
ENDBLK
  5
A30
330
A28
100
AcDbEntity
  8
Dimension002
100
AcDbBlockEnd
  0
BLOCK
  5
A33
330
A32
100
AcDbEntity
  8
Dimension003
100
AcDbBlockBegin
  2
*Dimension003
 70
   1
 10
0
 20
0
 30
0
  3
*Dimension003
  1
 
  0
LINE
  5
A34
330
A32
100
AcDbEntity
  8
Dimension003
100
AcDbLine
 10
275.5
 20
136.75
 30
0
 11
275.5
 21
133.945
 31
0
  0
LINE
  5
A35
330
A32
100
AcDbEntity
  8
Dimension003
100
AcDbLine
 10
173.9
 20
136.75
 30
0
 11
173.9
 21
133.945
 31
0
  0
LINE
  5
A36
330
A32
100
AcDbEntity
  8
Dimension003
100
AcDbLine
 10
173.9
 20
133.945
 30
0
 11
275.5
 21
133.945
 31
0
  0
TEXT
  5
A37
330
A32
100
AcDbEntity
  8
Dimension003
100
AcDbText
 10
272.87
 20
138.945
 30
0
 40
3.5
  1
4
  7
STANDARD
 72
1
 11
272.87
 21
133.945
 31
0
100
AcDbText
  0
SOLID
  5
A38
330
A32
100
AcDbEntity
  8
0
 62
     0
100
AcDbTrace
 10
178.9
 20
134.362
 30
0
 11
178.9
 21
133.528
 31
0
 12
173.9
 22
133.945
 32
0
 13
173.9
 23
133.945
 33
0
  0
SOLID
  5
A39
330
A32
100
AcDbEntity
  8
0
 62
     0
100
AcDbTrace
 10
270.5
 20
134.362
 30
0
 11
270.5
 21
133.528
 31
0
 12
275.5
 22
133.945
 32
0
 13
275.5
 23
133.945
 33
0
  0
ENDBLK
  5
A3A
330
A32
100
AcDbEntity
  8
Dimension003
100
AcDbBlockEnd
  0
BLOCK
  5
A3D
330
A3C
100
AcDbEntity
  8
Dimension004
100
AcDbBlockBegin
  2
*Dimension004
 70
   1
 10
0
 20
0
 30
0
  3
*Dimension004
  1
 
  0
LINE
  5
A3E
330
A3C
100
AcDbEntity
  8
Dimension004
100
AcDbLine
 10
173.9
 20
181.2
 30
0
 11
168.9
 21
181.2
 31
0
  0
LINE
  5
A3F
330
A3C
100
AcDbEntity
  8
Dimension004
100
AcDbLine
 10
173.9
 20
136.75
 30
0
 11
168.9
 21
136.75
 31
0
  0
LINE
  5
A40
330
A3C
100
AcDbEntity
  8
Dimension004
100
AcDbLine
 10
168.9
 20
136.75
 30
0
 11
168.9
 21
181.2
 31
0
  0
TEXT
  5
A41
330
A3C
100
AcDbEntity
  8
Dimension004
100
AcDbText
 10
173.9
 20
158.975
 30
0
 40
3.5
  1
1.75
  7
STANDARD
 72
1
 11
168.9
 21
158.975
 31
0
100
AcDbText
  0
SOLID
  5
A42
330
A3C
100
AcDbEntity
  8
0
 62
     0
100
AcDbTrace
 10
168.483
 20
131.75
 30
0
 11
169.317
 21
131.75
 31
0
 12
168.9
 22
136.75
 32
0
 13
168.9
 23
136.75
 33
0
  0
SOLID
  5
A43
330
A3C
100
AcDbEntity
  8
0
 62
     0
100
AcDbTrace
 10
168.483
 20
186.2
 30
0
 11
169.317
 21
186.2
 31
0
 12
168.9
 22
181.2
 32
0
 13
168.9
 23
181.2
 33
0
  0
ENDBLK
  5
A44
330
A3C
100
AcDbEntity
  8
Dimension004
100
AcDbBlockEnd
  0
BLOCK
  5
A47
330
A46
100
AcDbEntity
  8
Dimension005
100
AcDbBlockBegin
  2
*Dimension005
 70
   1
 10
0
 20
0
 30
0
  3
*Dimension005
  1
 
  0
LINE
  5
A48
330
A46
100
AcDbEntity
  8
Dimension005
100
AcDbLine
 10
173.9
 20
73.25
 30
0
 11
178.9
 21
73.25
 31
0
  0
LINE
  5
A49
330
A46
100
AcDbEntity
  8
Dimension005
100
AcDbLine
 10
173.9
 20
136.75
 30
0
 11
178.9
 21
136.75
 31
0
  0
LINE
  5
A4A
330
A46
100
AcDbEntity
  8
Dimension005
100
AcDbLine
 10
178.9
 20
136.75
 30
0
 11
178.9
 21
73.25
 31
0
  0
TEXT
  5
A4B
330
A46
100
AcDbEntity
  8
Dimension005
100
AcDbText
 10
173.9
 20
105
 30
0
 40
3.5
  1
2.5
  7
STANDARD
 72
1
 11
178.9
 21
105
 31
0
100
AcDbText
  0
SOLID
  5
A4C
330
A46
100
AcDbEntity
  8
0
 62
     0
100
AcDbTrace
 10
179.317
 20
141.75
 30
0
 11
178.483
 21
141.75
 31
0
 12
178.9
 22
136.75
 32
0
 13
178.9
 23
136.75
 33
0
  0
SOLID
  5
A4D
330
A46
100
AcDbEntity
  8
0
 62
     0
100
AcDbTrace
 10
179.317
 20
68.25
 30
0
 11
178.483
 21
68.25
 31
0
 12
178.9
 22
73.25
 32
0
 13
178.9
 23
73.25
 33
0
  0
ENDBLK
  5
A4E
330
A46
100
AcDbEntity
  8
Dimension005
100
AcDbBlockEnd
  0
BLOCK
  5
A51
330
A50
100
AcDbEntity
  8
Dimension006
100
AcDbBlockBegin
  2
*Dimension006
 70
   1
 10
0
 20
0
 30
0
  3
*Dimension006
  1
 
  0
LINE
  5
A52
330
A50
100
AcDbEntity
  8
Dimension006
100
AcDbLine
 10
205.65
 20
28.8
 30
0
 11
210.65
 21
28.8
 31
0
  0
LINE
  5
A53
330
A50
100
AcDbEntity
  8
Dimension006
100
AcDbLine
 10
205.65
 20
105
 30
0
 11
210.65
 21
105
 31
0
  0
LINE
  5
A54
330
A50
100
AcDbEntity
  8
Dimension006
100
AcDbLine
 10
210.65
 20
105
 30
0
 11
210.65
 21
28.8
 31
0
  0
TEXT
  5
A55
330
A50
100
AcDbEntity
  8
Dimension006
100
AcDbText
 10
205.65
 20
66.9
 30
0
 40
3.5
  1
3
  7
STANDARD
 72
1
 11
210.65
 21
66.9
 31
0
100
AcDbText
  0
SOLID
  5
A56
330
A50
100
AcDbEntity
  8
0
 62
     0
100
AcDbTrace
 10
211.067
 20
110
 30
0
 11
210.233
 21
110
 31
0
 12
210.65
 22
105
 32
0
 13
210.65
 23
105
 33
0
  0
SOLID
  5
A57
330
A50
100
AcDbEntity
  8
0
 62
     0
100
AcDbTrace
 10
211.067
 20
23.8
 30
0
 11
210.233
 21
23.8
 31
0
 12
210.65
 22
28.8
 32
0
 13
210.65
 23
28.8
 33
0
  0
ENDBLK
  5
A58
330
A50
100
AcDbEntity
  8
Dimension006
100
AcDbBlockEnd
  0
BLOCK
  5
A5B
330
A5A
100
AcDbEntity
  8
Dimension007
100
AcDbBlockBegin
  2
*Dimension007
 70
   1
 10
0
 20
0
 30
0
  3
*Dimension007
  1
 
  0
LINE
  5
A5C
330
A5A
100
AcDbEntity
  8
Dimension007
100
AcDbLine
 10
275.5
 20
105
 30
0
 11
275.5
 21
102.502
 31
0
  0
LINE
  5
A5D
330
A5A
100
AcDbEntity
  8
Dimension007
100
AcDbLine
 10
205.65
 20
105
 30
0
 11
205.65
 21
102.502
 31
0
  0
LINE
  5
A5E
330
A5A
100
AcDbEntity
  8
Dimension007
100
AcDbLine
 10
205.65
 20
102.502
 30
0
 11
275.5
 21
102.502
 31
0
  0
TEXT
  5
A5F
330
A5A
100
AcDbEntity
  8
Dimension007
100
AcDbText
 10
240.575
 20
107.502
 30
0
 40
3.5
  1
2.75
  7
STANDARD
 72
1
 11
240.575
 21
102.502
 31
0
100
AcDbText
  0
SOLID
  5
A60
330
A5A
100
AcDbEntity
  8
0
 62
     0
100
AcDbTrace
 10
200.65
 20
102.085
 30
0
 11
200.65
 21
102.919
 31
0
 12
205.65
 22
102.502
 32
0
 13
205.65
 23
102.502
 33
0
  0
SOLID
  5
A61
330
A5A
100
AcDbEntity
  8
0
 62
     0
100
AcDbTrace
 10
280.5
 20
102.085
 30
0
 11
280.5
 21
102.919
 31
0
 12
275.5
 22
102.502
 32
0
 13
275.5
 23
102.502
 33
0
  0
ENDBLK
  5
A62
330
A5A
100
AcDbEntity
  8
Dimension007
100
AcDbBlockEnd
  0
BLOCK
  5
A65
330
A64
100
AcDbEntity
  8
Dimension008
100
AcDbBlockBegin
  2
*Dimension008
 70
   1
 10
0
 20
0
 30
0
  3
*Dimension008
  1
 
  0
LINE
  5
A66
330
A64
100
AcDbEntity
  8
Dimension008
100
AcDbLine
 10
237.4
 20
136.75
 30
0
 11
237.4
 21
138.1
 31
0
  0
LINE
  5
A67
330
A64
100
AcDbEntity
  8
Dimension008
100
AcDbLine
 10
173.9
 20
136.75
 30
0
 11
173.9
 21
138.1
 31
0
  0
LINE
  5
A68
330
A64
100
AcDbEntity
  8
Dimension008
100
AcDbLine
 10
173.9
 20
138.1
 30
0
 11
237.4
 21
138.1
 31
0
  0
TEXT
  5
A69
330
A64
100
AcDbEntity
  8
Dimension008
100
AcDbText
 10
205.65
 20
143.1
 30
0
 40
3.5
  1
2.5
  7
STANDARD
 72
1
 11
205.65
 21
138.1
 31
0
100
AcDbText
  0
SOLID
  5
A6A
330
A64
100
AcDbEntity
  8
0
 62
     0
100
AcDbTrace
 10
168.9
 20
138.517
 30
0
 11
168.9
 21
137.683
 31
0
 12
173.9
 22
138.1
 32
0
 13
173.9
 23
138.1
 33
0
  0
SOLID
  5
A6B
330
A64
100
AcDbEntity
  8
0
 62
     0
100
AcDbTrace
 10
242.4
 20
138.517
 30
0
 11
242.4
 21
137.683
 31
0
 12
237.4
 22
138.1
 32
0
 13
237.4
 23
138.1
 33
0
  0
ENDBLK
  5
A6C
330
A64
100
AcDbEntity
  8
Dimension008
100
AcDbBlockEnd
  0
ENDSEC
  0
SECTION
  2
ENTITIES
  0
LINE
  5
A08
330
A02
100
AcDbEntity
  8
View
100
AcDbLine
 10
275.500000000
 20
79.600000000
 30
0.000000000
 11
275.500000000
 21
130.400000000
 31
0.000000000
  0
LINE
  5
A09
330
A02
100
AcDbEntity
  8
View
100
AcDbLine
 10
275.500000000
 20
130.400000000
 30
0.000000000
 11
224.700000000
 21
181.200000000
 31
0.000000000
  0
LINE
  5
A0A
330
A02
100
AcDbEntity
  8
View
100
AcDbLine
 10
224.700000000
 20
181.200000000
 30
0.000000000
 11
21.500000000
 21
181.200000000
 31
0.000000000
  0
LINE
  5
A0B
330
A02
100
AcDbEntity
  8
View
100
AcDbLine
 10
21.500000000
 20
181.200000000
 30
0.000000000
 11
21.500000000
 21
28.800000000
 31
0.000000000
  0
LINE
  5
A0C
330
A02
100
AcDbEntity
  8
View
100
AcDbLine
 10
21.500000000
 20
28.800000000
 30
0.000000000
 11
224.700000000
 21
28.800000000
 31
0.000000000
  0
LINE
  5
A0D
330
A02
100
AcDbEntity
  8
View
100
AcDbLine
 10
275.500000000
 20
79.600000000
 30
0.000000000
 11
224.700000000
 21
28.800000000
 31
0.000000000
  0
CIRCLE
  5
A0E
330
A02
100
AcDbEntity
  8
View
100
AcDbCircle
 10
205.650000000
 20
105.000000000
 30
0.000000000
 40
11.112500000
  0
CIRCLE
  5
A0F
330
A02
100
AcDbEntity
  8
View
100
AcDbCircle
 10
173.900000000
 20
73.250000000
 30
0.000000000
 40
4.826000000
  0
CIRCLE
  5
A10
330
A02
100
AcDbEntity
  8
View
100
AcDbCircle
 10
237.400000000
 20
73.250000000
 30
0.000000000
 40
4.826000000
  0
CIRCLE
  5
A11
330
A02
100
AcDbEntity
  8
View
100
AcDbCircle
 10
173.900000000
 20
136.750000000
 30
0.000000000
 40
4.826000000
  0
CIRCLE
  5
A12
330
A02
100
AcDbEntity
  8
View
100
AcDbCircle
 10
237.400000000
 20
136.750000000
 30
0.000000000
 40
4.826000000
  0
DIMENSION
  5
A13
330
A02
100
AcDbEntity
  8
Dimension
100
AcDbDimension
  2
*Dimension
 10
14.710009000
 20
132.247929000
 30
0.000000000
 11
9.710009000
 21
132.247929000
 31
0.000000000
 70
32
  1
6
  3
STANDARD
100
AcDbAlignedDimension
 13
21.500000000
 23
181.200000000
 33
0.000000000
 14
21.500000000
 24
28.800000000
 34
0.000000000
 50
90
100
AcDbRotatedDimension
  0
DIMENSION
  5
A1D
330
A02
100
AcDbEntity
  8
Dimension001
100
AcDbDimension
  2
*Dimension001
 10
51.876774000
 20
200.152257000
 30
0.000000000
 11
51.876774000
 21
195.152257000
 31
0.000000000
 70
32
  1
8
  3
STANDARD
100
AcDbAlignedDimension
 13
224.700000000
 23
181.200000000
 33
0.000000000
 14
21.500000000
 24
181.200000000
 34
0.000000000
100
AcDbRotatedDimension
  0
DIMENSION
  5
A27
330
A02
100
AcDbEntity
  8
Dimension002
100
AcDbDimension
  2
*Dimension002
 10
140.639411000
 20
25.311710000
 30
0.000000000
 11
140.639411000
 21
20.311710000
 31
0.000000000
 70
1
  1
10
  3
STANDARD
100
AcDbAlignedDimension
 13
275.500000000
 23
79.600000000
 33
0.000000000
 14
21.500000000
 24
79.600000000
 34
0.000000000
  0
DIMENSION
  5
A31
330
A02
100
AcDbEntity
  8
Dimension003
100
AcDbDimension
  2
*Dimension003
 10
272.870458000
 20
133.944967000
 30
0.000000000
 11
272.870458000
 21
138.944967000
 31
0.000000000
 70
1
  1
4
  3
STANDARD
100
AcDbAlignedDimension
 13
173.900000000
 23
136.750000000
 33
0.000000000
 14
275.500000000
 24
136.750000000
 34
0.000000000
  0
DIMENSION
  5
A3B
330
A02
100
AcDbEntity
  8
Dimension004
100
AcDbDimension
  2
*Dimension004
 10
168.900000000
 20
158.975000000
 30
0.000000000
 11
173.900000000
 21
158.975000000
 31
0.000000000
 70
32
  1
1.75
  3
STANDARD
100
AcDbAlignedDimension
 13
173.900000000
 23
136.750000000
 33
0.000000000
 14
173.900000000
 24
181.200000000
 34
0.000000000
 50
90
100
AcDbRotatedDimension
  0
DIMENSION
  5
A45
330
A02
100
AcDbEntity
  8
Dimension005
100
AcDbDimension
  2
*Dimension005
 10
178.900000000
 20
105.000000000
 30
0.000000000
 11
173.900000000
 21
105.000000000
 31
0.000000000
 70
32
  1
2.5
  3
STANDARD
100
AcDbAlignedDimension
 13
173.900000000
 23
136.750000000
 33
0.000000000
 14
173.900000000
 24
73.250000000
 34
0.000000000
 50
90
100
AcDbRotatedDimension
  0
DIMENSION
  5
A4F
330
A02
100
AcDbEntity
  8
Dimension006
100
AcDbDimension
  2
*Dimension006
 10
210.650000000
 20
66.900000000
 30
0.000000000
 11
205.650000000
 21
66.900000000
 31
0.000000000
 70
32
  1
3
  3
STANDARD
100
AcDbAlignedDimension
 13
205.650000000
 23
105.000000000
 33
0.000000000
 14
205.650000000
 24
28.800000000
 34
0.000000000
 50
90
100
AcDbRotatedDimension
  0
DIMENSION
  5
A59
330
A02
100
AcDbEntity
  8
Dimension007
100
AcDbDimension
  2
*Dimension007
 10
240.575000000
 20
102.501900000
 30
0.000000000
 11
240.575000000
 21
107.501900000
 31
0.000000000
 70
32
  1
2.75
  3
STANDARD
100
AcDbAlignedDimension
 13
205.650000000
 23
105.000000000
 33
0.000000000
 14
275.500000000
 24
105.000000000
 34
0.000000000
100
AcDbRotatedDimension
  0
DIMENSION
  5
A63
330
A02
100
AcDbEntity
  8
Dimension008
100
AcDbDimension
  2
*Dimension008
 10
205.650000000
 20
138.100000000
 30
0.000000000
 11
205.650000000
 21
143.100000000
 31
0.000000000
 70
32
  1
2.5
  3
STANDARD
100
AcDbAlignedDimension
 13
173.900000000
 23
136.750000000
 33
0.000000000
 14
237.400000000
 24
136.750000000
 34
0.000000000
100
AcDbRotatedDimension
  0
ENDSEC
  0
SECTION
  2
OBJECTS
  0
DICTIONARY
  5
F000
330
0
100
AcDbDictionary
  3
ACAD_GROUP
350
F001
  0
DICTIONARY
  5
F001
330
F000
100
AcDbDictionary
  0
ENDSEC
  0
EOF